<?xml version="1.0" standalone="no"?>
 <!DOCTYPE svg PUBLIC "-//W3C//DTD SVG 1.1//EN" 
 "http://www.w3.org/Graphics/SVG/1.1/DTD/svg11.dtd"> 
<svg
  xmlns:svg="http://www.w3.org/2000/svg"
  xmlns="http://www.w3.org/2000/svg"
  xmlns:xlink="http://www.w3.org/1999/xlink"
  version="1.1"
  width="29.700220cm" height="21.000720cm" viewBox="0 0 116930 82680">
<title>SVG Picture created as MainBoardTurningTable-F_SilkS.svg date 2022/12/18 21:23:29 </title>
  <desc>Picture generated by PCBNEW </desc>
<g style="fill:#000000; fill-opacity:1;stroke:#000000; stroke-opacity:1;
stroke-linecap:round; stroke-linejoin:round;"
 transform="translate(0 0) scale(1 1)">
</g>
<g style="fill:#000000; fill-opacity:0.0; 
stroke:#000000; stroke-width:-0.000393701; stroke-opacity:1; 
stroke-linecap:round; stroke-linejoin:round;">
</g>
<g style="fill:#000000; fill-opacity:0.0; 
stroke:#000000; stroke-width:39.3701; stroke-opacity:1; 
stroke-linecap:round; stroke-linejoin:round;">
</g>
<g style="fill:#000000; fill-opacity:0.0; 
stroke:#000000; stroke-width:59.0551; stroke-opacity:1; 
stroke-linecap:round; stroke-linejoin:round;">
<rect x="69685.9" y="65357.2" width="42519.7" height="12598.4" rx="0" />
</g>
<g style="fill:#000000; fill-opacity:0.0; 
stroke:#000000; stroke-width:39.3701; stroke-opacity:1; 
stroke-linecap:round; stroke-linejoin:round;">
</g>
<g style="fill:#000000; fill-opacity:0.0; 
stroke:#000000; stroke-width:59.0551; stroke-opacity:1; 
stroke-linecap:round; stroke-linejoin:round;">
<rect x="3937.01" y="3937.01" width="109056" height="74806" rx="0" />
</g>
<g style="fill:#000000; fill-opacity:0.0; 
stroke:#000000; stroke-width:39.3701; stroke-opacity:1; 
stroke-linecap:round; stroke-linejoin:round;">
</g>
<g style="fill:#000000; fill-opacity:0.0; 
stroke:#000000; stroke-width:59.0551; stroke-opacity:1; 
stroke-linecap:round; stroke-linejoin:round;">
<rect x="4724.41" y="4724.41" width="107481" height="73231.2" rx="0" />
</g>
<g style="fill:#000000; fill-opacity:0.0; 
stroke:#000000; stroke-width:39.3701; stroke-opacity:1; 
stroke-linecap:round; stroke-linejoin:round;">
</g>
<g style="fill:#000000; fill-opacity:0.0; 
stroke:#000000; stroke-width:59.0551; stroke-opacity:1; 
stroke-linecap:round; stroke-linejoin:round;">
<path d="M23622 4724
L23622 3937
" />
</g>
<g style="fill:#000000; fill-opacity:0.0; 
stroke:#000000; stroke-width:39.3701; stroke-opacity:1; 
stroke-linecap:round; stroke-linejoin:round;">
</g>
<g style="fill:#000000; fill-opacity:0.0; 
stroke:#000000; stroke-width:59.0551; stroke-opacity:1; 
stroke-linecap:round; stroke-linejoin:round;">
<path d="M43307 4724
L43307 3937
" />
</g>
<g style="fill:#000000; fill-opacity:0.0; 
stroke:#000000; stroke-width:39.3701; stroke-opacity:1; 
stroke-linecap:round; stroke-linejoin:round;">
</g>
<g style="fill:#000000; fill-opacity:0.0; 
stroke:#000000; stroke-width:59.0551; stroke-opacity:1; 
stroke-linecap:round; stroke-linejoin:round;">
<path d="M62992 4724
L62992 3937
" />
</g>
<g style="fill:#000000; fill-opacity:0.0; 
stroke:#000000; stroke-width:39.3701; stroke-opacity:1; 
stroke-linecap:round; stroke-linejoin:round;">
</g>
<g style="fill:#000000; fill-opacity:0.0; 
stroke:#000000; stroke-width:59.0551; stroke-opacity:1; 
stroke-linecap:round; stroke-linejoin:round;">
<path d="M82677 4724
L82677 3937
" />
</g>
<g style="fill:#000000; fill-opacity:0.0; 
stroke:#000000; stroke-width:39.3701; stroke-opacity:1; 
stroke-linecap:round; stroke-linejoin:round;">
</g>
<g style="fill:#000000; fill-opacity:0.0; 
stroke:#000000; stroke-width:59.0551; stroke-opacity:1; 
stroke-linecap:round; stroke-linejoin:round;">
<path d="M102362 4724
L102362 3937
" />
</g>
<g style="fill:#000000; fill-opacity:0.0; 
stroke:#000000; stroke-width:39.3701; stroke-opacity:1; 
stroke-linecap:round; stroke-linejoin:round;">
</g>
<g style="fill:#000000; fill-opacity:0.0; 
stroke:#000000; stroke-width:59.0551; stroke-opacity:1; 
stroke-linecap:round; stroke-linejoin:round;">
<text x="13779.5" y="4586.61"
textLength="564.211" font-size="682.415" lengthAdjust="spacingAndGlyphs"
text-anchor="start" opacity="0">1</text>
<path d="M14199 4562
L13906 4562
" />
<path d="M14052 4562
L14052 4050
L14004 4123
L13955 4172
L13906 4196
" />
</g>
<g style="fill:#000000; fill-opacity:0.0; 
stroke:#000000; stroke-width:39.3701; stroke-opacity:1; 
stroke-linecap:round; stroke-linejoin:round;">
</g>
<g style="fill:#000000; fill-opacity:0.0; 
stroke:#000000; stroke-width:59.0551; stroke-opacity:1; 
stroke-linecap:round; stroke-linejoin:round;">
<text x="33464.6" y="4586.61"
textLength="546.494" font-size="682.415" lengthAdjust="spacingAndGlyphs"
text-anchor="start" opacity="0">2</text>
<path d="M33591 4099
L33615 4074
L33664 4050
L33786 4050
L33835 4074
L33859 4099
L33884 4147
L33884 4196
L33859 4269
L33567 4562
L33884 4562
" />
</g>
<g style="fill:#000000; fill-opacity:0.0; 
stroke:#000000; stroke-width:39.3701; stroke-opacity:1; 
stroke-linecap:round; stroke-linejoin:round;">
</g>
<g style="fill:#000000; fill-opacity:0.0; 
stroke:#000000; stroke-width:59.0551; stroke-opacity:1; 
stroke-linecap:round; stroke-linejoin:round;">
<text x="53149.6" y="4586.61"
textLength="546.494" font-size="682.415" lengthAdjust="spacingAndGlyphs"
text-anchor="start" opacity="0">3</text>
<path d="M53252 4050
L53569 4050
L53398 4245
L53471 4245
L53520 4269
L53544 4294
L53569 4342
L53569 4464
L53544 4513
L53520 4537
L53471 4562
L53325 4562
L53276 4537
L53252 4513
" />
</g>
<g style="fill:#000000; fill-opacity:0.0; 
stroke:#000000; stroke-width:39.3701; stroke-opacity:1; 
stroke-linecap:round; stroke-linejoin:round;">
</g>
<g style="fill:#000000; fill-opacity:0.0; 
stroke:#000000; stroke-width:59.0551; stroke-opacity:1; 
stroke-linecap:round; stroke-linejoin:round;">
<text x="72834.6" y="4586.61"
textLength="546.494" font-size="682.415" lengthAdjust="spacingAndGlyphs"
text-anchor="start" opacity="0">4</text>
<path d="M73205 4221
L73205 4562
" />
<path d="M73083 4026
L72961 4391
L73278 4391
" />
</g>
<g style="fill:#000000; fill-opacity:0.0; 
stroke:#000000; stroke-width:39.3701; stroke-opacity:1; 
stroke-linecap:round; stroke-linejoin:round;">
</g>
<g style="fill:#000000; fill-opacity:0.0; 
stroke:#000000; stroke-width:59.0551; stroke-opacity:1; 
stroke-linecap:round; stroke-linejoin:round;">
<text x="92519.7" y="4586.61"
textLength="546.494" font-size="682.415" lengthAdjust="spacingAndGlyphs"
text-anchor="start" opacity="0">5</text>
<path d="M92914 4050
L92671 4050
L92646 4294
L92671 4269
L92719 4245
L92841 4245
L92890 4269
L92914 4294
L92939 4342
L92939 4464
L92914 4513
L92890 4537
L92841 4562
L92719 4562
L92671 4537
L92646 4513
" />
</g>
<g style="fill:#000000; fill-opacity:0.0; 
stroke:#000000; stroke-width:39.3701; stroke-opacity:1; 
stroke-linecap:round; stroke-linejoin:round;">
</g>
<g style="fill:#000000; fill-opacity:0.0; 
stroke:#000000; stroke-width:59.0551; stroke-opacity:1; 
stroke-linecap:round; stroke-linejoin:round;">
<text x="112205" y="4586.61"
textLength="546.494" font-size="682.415" lengthAdjust="spacingAndGlyphs"
text-anchor="start" opacity="0">6</text>
<path d="M112575 4050
L112477 4050
L112429 4074
L112404 4099
L112356 4172
L112331 4269
L112331 4464
L112356 4513
L112380 4537
L112429 4562
L112526 4562
L112575 4537
L112599 4513
L112624 4464
L112624 4342
L112599 4294
L112575 4269
L112526 4245
L112429 4245
L112380 4269
L112356 4294
L112331 4342
" />
</g>
<g style="fill:#000000; fill-opacity:0.0; 
stroke:#000000; stroke-width:39.3701; stroke-opacity:1; 
stroke-linecap:round; stroke-linejoin:round;">
</g>
<g style="fill:#000000; fill-opacity:0.0; 
stroke:#000000; stroke-width:59.0551; stroke-opacity:1; 
stroke-linecap:round; stroke-linejoin:round;">
<path d="M23622 77955
L23622 78742
" />
</g>
<g style="fill:#000000; fill-opacity:0.0; 
stroke:#000000; stroke-width:39.3701; stroke-opacity:1; 
stroke-linecap:round; stroke-linejoin:round;">
</g>
<g style="fill:#000000; fill-opacity:0.0; 
stroke:#000000; stroke-width:59.0551; stroke-opacity:1; 
stroke-linecap:round; stroke-linejoin:round;">
<path d="M43307 77955
L43307 78742
" />
</g>
<g style="fill:#000000; fill-opacity:0.0; 
stroke:#000000; stroke-width:39.3701; stroke-opacity:1; 
stroke-linecap:round; stroke-linejoin:round;">
</g>
<g style="fill:#000000; fill-opacity:0.0; 
stroke:#000000; stroke-width:59.0551; stroke-opacity:1; 
stroke-linecap:round; stroke-linejoin:round;">
<path d="M62992 77955
L62992 78742
" />
</g>
<g style="fill:#000000; fill-opacity:0.0; 
stroke:#000000; stroke-width:39.3701; stroke-opacity:1; 
stroke-linecap:round; stroke-linejoin:round;">
</g>
<g style="fill:#000000; fill-opacity:0.0; 
stroke:#000000; stroke-width:59.0551; stroke-opacity:1; 
stroke-linecap:round; stroke-linejoin:round;">
<path d="M82677 77955
L82677 78742
" />
</g>
<g style="fill:#000000; fill-opacity:0.0; 
stroke:#000000; stroke-width:39.3701; stroke-opacity:1; 
stroke-linecap:round; stroke-linejoin:round;">
</g>
<g style="fill:#000000; fill-opacity:0.0; 
stroke:#000000; stroke-width:59.0551; stroke-opacity:1; 
stroke-linecap:round; stroke-linejoin:round;">
<path d="M102362 77955
L102362 78742
" />
</g>
<g style="fill:#000000; fill-opacity:0.0; 
stroke:#000000; stroke-width:39.3701; stroke-opacity:1; 
stroke-linecap:round; stroke-linejoin:round;">
</g>
<g style="fill:#000000; fill-opacity:0.0; 
stroke:#000000; stroke-width:59.0551; stroke-opacity:1; 
stroke-linecap:round; stroke-linejoin:round;">
<text x="13779.5" y="78605.2"
textLength="546.494" font-size="682.415" lengthAdjust="spacingAndGlyphs"
text-anchor="start" opacity="0">1</text>
<path d="M14199 78580
L13906 78580
" />
<path d="M14052 78580
L14052 78069
L14004 78142
L13955 78190
L13906 78215
" />
</g>
<g style="fill:#000000; fill-opacity:0.0; 
stroke:#000000; stroke-width:39.3701; stroke-opacity:1; 
stroke-linecap:round; stroke-linejoin:round;">
</g>
<g style="fill:#000000; fill-opacity:0.0; 
stroke:#000000; stroke-width:59.0551; stroke-opacity:1; 
stroke-linecap:round; stroke-linejoin:round;">
<text x="33464.6" y="78605.2"
textLength="546.494" font-size="682.415" lengthAdjust="spacingAndGlyphs"
text-anchor="start" opacity="0">2</text>
<path d="M33591 78117
L33615 78093
L33664 78069
L33786 78069
L33835 78093
L33859 78117
L33884 78166
L33884 78215
L33859 78288
L33567 78580
L33884 78580
" />
</g>
<g style="fill:#000000; fill-opacity:0.0; 
stroke:#000000; stroke-width:39.3701; stroke-opacity:1; 
stroke-linecap:round; stroke-linejoin:round;">
</g>
<g style="fill:#000000; fill-opacity:0.0; 
stroke:#000000; stroke-width:59.0551; stroke-opacity:1; 
stroke-linecap:round; stroke-linejoin:round;">
<text x="53149.6" y="78605.2"
textLength="546.494" font-size="682.415" lengthAdjust="spacingAndGlyphs"
text-anchor="start" opacity="0">3</text>
<path d="M53252 78069
L53569 78069
L53398 78263
L53471 78263
L53520 78288
L53544 78312
L53569 78361
L53569 78483
L53544 78532
L53520 78556
L53471 78580
L53325 78580
L53276 78556
L53252 78532
" />
</g>
<g style="fill:#000000; fill-opacity:0.0; 
stroke:#000000; stroke-width:39.3701; stroke-opacity:1; 
stroke-linecap:round; stroke-linejoin:round;">
</g>
<g style="fill:#000000; fill-opacity:0.0; 
stroke:#000000; stroke-width:59.0551; stroke-opacity:1; 
stroke-linecap:round; stroke-linejoin:round;">
<text x="72834.6" y="78605.2"
textLength="546.494" font-size="682.415" lengthAdjust="spacingAndGlyphs"
text-anchor="start" opacity="0">4</text>
<path d="M73205 78239
L73205 78580
" />
<path d="M73083 78044
L72961 78410
L73278 78410
" />
</g>
<g style="fill:#000000; fill-opacity:0.0; 
stroke:#000000; stroke-width:39.3701; stroke-opacity:1; 
stroke-linecap:round; stroke-linejoin:round;">
</g>
<g style="fill:#000000; fill-opacity:0.0; 
stroke:#000000; stroke-width:59.0551; stroke-opacity:1; 
stroke-linecap:round; stroke-linejoin:round;">
<text x="92519.7" y="78605.2"
textLength="546.494" font-size="682.415" lengthAdjust="spacingAndGlyphs"
text-anchor="start" opacity="0">5</text>
<path d="M92914 78069
L92671 78069
L92646 78312
L92671 78288
L92719 78263
L92841 78263
L92890 78288
L92914 78312
L92939 78361
L92939 78483
L92914 78532
L92890 78556
L92841 78580
L92719 78580
L92671 78556
L92646 78532
" />
</g>
<g style="fill:#000000; fill-opacity:0.0; 
stroke:#000000; stroke-width:39.3701; stroke-opacity:1; 
stroke-linecap:round; stroke-linejoin:round;">
</g>
<g style="fill:#000000; fill-opacity:0.0; 
stroke:#000000; stroke-width:59.0551; stroke-opacity:1; 
stroke-linecap:round; stroke-linejoin:round;">
<text x="112205" y="78605.2"
textLength="546.494" font-size="682.415" lengthAdjust="spacingAndGlyphs"
text-anchor="start" opacity="0">6</text>
<path d="M112575 78069
L112477 78069
L112429 78093
L112404 78117
L112356 78190
L112331 78288
L112331 78483
L112356 78532
L112380 78556
L112429 78580
L112526 78580
L112575 78556
L112599 78532
L112624 78483
L112624 78361
L112599 78312
L112575 78288
L112526 78263
L112429 78263
L112380 78288
L112356 78312
L112331 78361
" />
</g>
<g style="fill:#000000; fill-opacity:0.0; 
stroke:#000000; stroke-width:39.3701; stroke-opacity:1; 
stroke-linecap:round; stroke-linejoin:round;">
</g>
<g style="fill:#000000; fill-opacity:0.0; 
stroke:#000000; stroke-width:59.0551; stroke-opacity:1; 
stroke-linecap:round; stroke-linejoin:round;">
<path d="M3937 23622
L4724 23622
" />
</g>
<g style="fill:#000000; fill-opacity:0.0; 
stroke:#000000; stroke-width:39.3701; stroke-opacity:1; 
stroke-linecap:round; stroke-linejoin:round;">
</g>
<g style="fill:#000000; fill-opacity:0.0; 
stroke:#000000; stroke-width:59.0551; stroke-opacity:1; 
stroke-linecap:round; stroke-linejoin:round;">
<path d="M3937 43307
L4724 43307
" />
</g>
<g style="fill:#000000; fill-opacity:0.0; 
stroke:#000000; stroke-width:39.3701; stroke-opacity:1; 
stroke-linecap:round; stroke-linejoin:round;">
</g>
<g style="fill:#000000; fill-opacity:0.0; 
stroke:#000000; stroke-width:59.0551; stroke-opacity:1; 
stroke-linecap:round; stroke-linejoin:round;">
<path d="M3937 62992
L4724 62992
" />
</g>
<g style="fill:#000000; fill-opacity:0.0; 
stroke:#000000; stroke-width:39.3701; stroke-opacity:1; 
stroke-linecap:round; stroke-linejoin:round;">
</g>
<g style="fill:#000000; fill-opacity:0.0; 
stroke:#000000; stroke-width:59.0551; stroke-opacity:1; 
stroke-linecap:round; stroke-linejoin:round;">
<text x="4330.71" y="14035.4"
textLength="497.75" font-size="682.415" lengthAdjust="spacingAndGlyphs"
text-anchor="middle" opacity="0">A</text>
<path d="M4208 13864
L4452 13864
" />
<path d="M4160 14011
L4330 13499
L4501 14011
" />
</g>
<g style="fill:#000000; fill-opacity:0.0; 
stroke:#000000; stroke-width:39.3701; stroke-opacity:1; 
stroke-linecap:round; stroke-linejoin:round;">
</g>
<g style="fill:#000000; fill-opacity:0.0; 
stroke:#000000; stroke-width:59.0551; stroke-opacity:1; 
stroke-linecap:round; stroke-linejoin:round;">
<text x="4330.71" y="33720.5"
textLength="570.866" font-size="682.415" lengthAdjust="spacingAndGlyphs"
text-anchor="middle" opacity="0">B</text>
<path d="M4367 33428
L4440 33452
L4464 33476
L4489 33525
L4489 33598
L4464 33647
L4440 33671
L4391 33696
L4196 33696
L4196 33184
L4367 33184
L4416 33208
L4440 33233
L4464 33281
L4464 33330
L4440 33379
L4416 33403
L4367 33428
L4196 33428
" />
</g>
<g style="fill:#000000; fill-opacity:0.0; 
stroke:#000000; stroke-width:39.3701; stroke-opacity:1; 
stroke-linecap:round; stroke-linejoin:round;">
</g>
<g style="fill:#000000; fill-opacity:0.0; 
stroke:#000000; stroke-width:59.0551; stroke-opacity:1; 
stroke-linecap:round; stroke-linejoin:round;">
<text x="4330.71" y="53405.5"
textLength="570.866" font-size="682.415" lengthAdjust="spacingAndGlyphs"
text-anchor="middle" opacity="0">C</text>
<path d="M4489 53332
L4464 53356
L4391 53381
L4342 53381
L4269 53356
L4221 53308
L4196 53259
L4172 53161
L4172 53088
L4196 52991
L4221 52942
L4269 52893
L4342 52869
L4391 52869
L4464 52893
L4489 52918
" />
</g>
<g style="fill:#000000; fill-opacity:0.0; 
stroke:#000000; stroke-width:39.3701; stroke-opacity:1; 
stroke-linecap:round; stroke-linejoin:round;">
</g>
<g style="fill:#000000; fill-opacity:0.0; 
stroke:#000000; stroke-width:59.0551; stroke-opacity:1; 
stroke-linecap:round; stroke-linejoin:round;">
<text x="4330.71" y="73090.6"
textLength="570.866" font-size="682.415" lengthAdjust="spacingAndGlyphs"
text-anchor="middle" opacity="0">D</text>
<path d="M4196 73066
L4196 72554
L4318 72554
L4391 72578
L4440 72627
L4464 72676
L4489 72773
L4489 72846
L4464 72944
L4440 72993
L4391 73041
L4318 73066
L4196 73066
" />
</g>
<g style="fill:#000000; fill-opacity:0.0; 
stroke:#000000; stroke-width:39.3701; stroke-opacity:1; 
stroke-linecap:round; stroke-linejoin:round;">
</g>
<g style="fill:#000000; fill-opacity:0.0; 
stroke:#000000; stroke-width:59.0551; stroke-opacity:1; 
stroke-linecap:round; stroke-linejoin:round;">
<path d="M112992 23622
L112205 23622
" />
</g>
<g style="fill:#000000; fill-opacity:0.0; 
stroke:#000000; stroke-width:39.3701; stroke-opacity:1; 
stroke-linecap:round; stroke-linejoin:round;">
</g>
<g style="fill:#000000; fill-opacity:0.0; 
stroke:#000000; stroke-width:59.0551; stroke-opacity:1; 
stroke-linecap:round; stroke-linejoin:round;">
<path d="M112992 43307
L112205 43307
" />
</g>
<g style="fill:#000000; fill-opacity:0.0; 
stroke:#000000; stroke-width:39.3701; stroke-opacity:1; 
stroke-linecap:round; stroke-linejoin:round;">
</g>
<g style="fill:#000000; fill-opacity:0.0; 
stroke:#000000; stroke-width:59.0551; stroke-opacity:1; 
stroke-linecap:round; stroke-linejoin:round;">
<path d="M112992 62992
L112205 62992
" />
</g>
<g style="fill:#000000; fill-opacity:0.0; 
stroke:#000000; stroke-width:39.3701; stroke-opacity:1; 
stroke-linecap:round; stroke-linejoin:round;">
</g>
<g style="fill:#000000; fill-opacity:0.0; 
stroke:#000000; stroke-width:59.0551; stroke-opacity:1; 
stroke-linecap:round; stroke-linejoin:round;">
<text x="112599" y="14035.4"
textLength="497.75" font-size="682.415" lengthAdjust="spacingAndGlyphs"
text-anchor="middle" opacity="0">A</text>
<path d="M112477 13864
L112721 13864
" />
<path d="M112428 14011
L112599 13499
L112769 14011
" />
</g>
<g style="fill:#000000; fill-opacity:0.0; 
stroke:#000000; stroke-width:39.3701; stroke-opacity:1; 
stroke-linecap:round; stroke-linejoin:round;">
</g>
<g style="fill:#000000; fill-opacity:0.0; 
stroke:#000000; stroke-width:59.0551; stroke-opacity:1; 
stroke-linecap:round; stroke-linejoin:round;">
<text x="112599" y="33720.5"
textLength="570.866" font-size="682.415" lengthAdjust="spacingAndGlyphs"
text-anchor="middle" opacity="0">B</text>
<path d="M112635 33428
L112708 33452
L112733 33476
L112757 33525
L112757 33598
L112733 33647
L112708 33671
L112660 33696
L112465 33696
L112465 33184
L112635 33184
L112684 33208
L112708 33233
L112733 33281
L112733 33330
L112708 33379
L112684 33403
L112635 33428
L112465 33428
" />
</g>
<g style="fill:#000000; fill-opacity:0.0; 
stroke:#000000; stroke-width:39.3701; stroke-opacity:1; 
stroke-linecap:round; stroke-linejoin:round;">
</g>
<g style="fill:#000000; fill-opacity:0.0; 
stroke:#000000; stroke-width:59.0551; stroke-opacity:1; 
stroke-linecap:round; stroke-linejoin:round;">
<text x="112599" y="53405.5"
textLength="570.866" font-size="682.415" lengthAdjust="spacingAndGlyphs"
text-anchor="middle" opacity="0">C</text>
<path d="M112757 53332
L112733 53356
L112660 53381
L112611 53381
L112538 53356
L112489 53308
L112465 53259
L112440 53161
L112440 53088
L112465 52991
L112489 52942
L112538 52893
L112611 52869
L112660 52869
L112733 52893
L112757 52918
" />
</g>
<g style="fill:#000000; fill-opacity:0.0; 
stroke:#000000; stroke-width:39.3701; stroke-opacity:1; 
stroke-linecap:round; stroke-linejoin:round;">
</g>
<g style="fill:#000000; fill-opacity:0.0; 
stroke:#000000; stroke-width:59.0551; stroke-opacity:1; 
stroke-linecap:round; stroke-linejoin:round;">
<text x="112599" y="73090.6"
textLength="570.866" font-size="682.415" lengthAdjust="spacingAndGlyphs"
text-anchor="middle" opacity="0">D</text>
<path d="M112465 73066
L112465 72554
L112587 72554
L112660 72578
L112708 72627
L112733 72676
L112757 72773
L112757 72846
L112733 72944
L112708 72993
L112660 73041
L112587 73066
L112465 73066
" />
</g>
<g style="fill:#000000; fill-opacity:0.0; 
stroke:#000000; stroke-width:39.3701; stroke-opacity:1; 
stroke-linecap:round; stroke-linejoin:round;">
</g>
<g style="fill:#000000; fill-opacity:0.0; 
stroke:#000000; stroke-width:59.0551; stroke-opacity:1; 
stroke-linecap:round; stroke-linejoin:round;">
<text x="78741" y="76321.7"
textLength="2758.72" font-size="787.402" lengthAdjust="spacingAndGlyphs"
text-anchor="start" opacity="0">Date: </text>
<path d="M78911 76293
L78911 75703
L79051 75703
L79136 75731
L79192 75787
L79220 75843
L79248 75956
L79248 76040
L79220 76153
L79192 76209
L79136 76265
L79051 76293
L78911 76293
" />
<path d="M79754 76293
L79754 75984
L79726 75928
L79670 75899
L79557 75899
L79501 75928
" />
<path d="M79754 76265
L79698 76293
L79557 76293
L79501 76265
L79473 76209
L79473 76153
L79501 76096
L79557 76068
L79698 76068
L79754 76040
" />
<path d="M79951 75899
L80176 75899
" />
<path d="M80036 75703
L80036 76209
L80064 76265
L80120 76293
L80176 76293
" />
<path d="M80598 76265
L80542 76293
L80429 76293
L80373 76265
L80345 76209
L80345 75984
L80373 75928
L80429 75899
L80542 75899
L80598 75928
L80626 75984
L80626 76040
L80345 76096
" />
<path d="M80879 76237
L80907 76265
L80879 76293
L80851 76265
L80879 76237
L80879 76293
" />
<path d="M80879 75928
L80907 75956
L80879 75984
L80851 75956
L80879 75928
L80879 75984
" />
</g>
<g style="fill:#000000; fill-opacity:0.0; 
stroke:#000000; stroke-width:39.3701; stroke-opacity:1; 
stroke-linecap:round; stroke-linejoin:round;">
</g>
<g style="fill:#000000; fill-opacity:0.0; 
stroke:#000000; stroke-width:59.0551; stroke-opacity:1; 
stroke-linecap:round; stroke-linejoin:round;">
<path d="M69685 76577
L112205 76577
" />
</g>
<g style="fill:#000000; fill-opacity:0.0; 
stroke:#000000; stroke-width:39.3701; stroke-opacity:1; 
stroke-linecap:round; stroke-linejoin:round;">
</g>
<g style="fill:#000000; fill-opacity:0.0; 
stroke:#000000; stroke-width:59.0551; stroke-opacity:1; 
stroke-linecap:round; stroke-linejoin:round;">
<text x="70079.6" y="77424.1"
textLength="14091.7" font-size="787.402" lengthAdjust="spacingAndGlyphs"
text-anchor="start" opacity="0">KiCad E.D.A.  kicad (5.1.12)-1</text>
<path d="M70249 77395
L70249 76805
" />
<path d="M70587 77395
L70334 77058
" />
<path d="M70587 76805
L70249 77142
" />
<path d="M70840 77395
L70840 77002
" />
<path d="M70840 76805
L70812 76833
L70840 76861
L70868 76833
L70840 76805
L70840 76861
" />
<path d="M71458 77339
L71430 77367
L71346 77395
L71290 77395
L71205 77367
L71149 77311
L71121 77255
L71093 77142
L71093 77058
L71121 76946
L71149 76889
L71205 76833
L71290 76805
L71346 76805
L71430 76833
L71458 76861
" />
<path d="M71965 77395
L71965 77086
L71937 77030
L71880 77002
L71768 77002
L71712 77030
" />
<path d="M71965 77367
L71908 77395
L71768 77395
L71712 77367
L71683 77311
L71683 77255
L71712 77199
L71768 77171
L71908 77171
L71965 77142
" />
<path d="M72499 77395
L72499 76805
" />
<path d="M72499 77367
L72443 77395
L72330 77395
L72274 77367
L72246 77339
L72218 77283
L72218 77114
L72246 77058
L72274 77030
L72330 77002
L72443 77002
L72499 77030
" />
<path d="M73230 77086
L73427 77086
" />
<path d="M73511 77395
L73230 77395
L73230 76805
L73511 76805
" />
<path d="M73764 77339
L73793 77367
L73764 77395
L73736 77367
L73764 77339
L73764 77395
" />
<path d="M74046 77395
L74046 76805
L74186 76805
L74271 76833
L74327 76889
L74355 76946
L74383 77058
L74383 77142
L74355 77255
L74327 77311
L74271 77367
L74186 77395
L74046 77395
" />
<path d="M74636 77339
L74664 77367
L74636 77395
L74608 77367
L74636 77339
L74636 77395
" />
<path d="M74889 77227
L75171 77227
" />
<path d="M74833 77395
L75030 76805
L75227 77395
" />
<path d="M75424 77339
L75452 77367
L75424 77395
L75395 77367
L75424 77339
L75424 77395
" />
<path d="M76605 77395
L76605 76805
" />
<path d="M76661 77171
L76830 77395
" />
<path d="M76830 77002
L76605 77227
" />
<path d="M77083 77395
L77083 77002
" />
<path d="M77083 76805
L77055 76833
L77083 76861
L77111 76833
L77083 76805
L77083 76861
" />
<path d="M77617 77367
L77561 77395
L77448 77395
L77392 77367
L77364 77339
L77336 77283
L77336 77114
L77364 77058
L77392 77030
L77448 77002
L77561 77002
L77617 77030
" />
<path d="M78123 77395
L78123 77086
L78095 77030
L78039 77002
L77926 77002
L77870 77030
" />
<path d="M78123 77367
L78067 77395
L77926 77395
L77870 77367
L77842 77311
L77842 77255
L77870 77199
L77926 77171
L78067 77171
L78123 77142
" />
<path d="M78658 77395
L78658 76805
" />
<path d="M78658 77367
L78601 77395
L78489 77395
L78433 77367
L78404 77339
L78376 77283
L78376 77114
L78404 77058
L78433 77030
L78489 77002
L78601 77002
L78658 77030
" />
<path d="M79557 77620
L79529 77592
L79473 77508
L79445 77452
L79417 77367
L79389 77227
L79389 77114
L79417 76974
L79445 76889
L79473 76833
L79529 76749
L79557 76721
" />
<path d="M80064 76805
L79782 76805
L79754 77086
L79782 77058
L79839 77030
L79979 77030
L80036 77058
L80064 77086
L80092 77142
L80092 77283
L80064 77339
L80036 77367
L79979 77395
L79839 77395
L79782 77367
L79754 77339
" />
<path d="M80345 77339
L80373 77367
L80345 77395
L80317 77367
L80345 77339
L80345 77395
" />
<path d="M80935 77395
L80598 77395
" />
<path d="M80767 77395
L80767 76805
L80710 76889
L80654 76946
L80598 76974
" />
<path d="M81188 77339
L81217 77367
L81188 77395
L81160 77367
L81188 77339
L81188 77395
" />
<path d="M81779 77395
L81442 77395
" />
<path d="M81610 77395
L81610 76805
L81554 76889
L81498 76946
L81442 76974
" />
<path d="M82004 76861
L82032 76833
L82088 76805
L82229 76805
L82285 76833
L82313 76861
L82341 76917
L82341 76974
L82313 77058
L81976 77395
L82341 77395
" />
<path d="M82538 77620
L82566 77592
L82623 77508
L82651 77452
L82679 77367
L82707 77227
L82707 77114
L82679 76974
L82651 76889
L82623 76833
L82566 76749
L82538 76721
" />
<path d="M82988 77171
L83438 77171
" />
<path d="M84029 77395
L83691 77395
" />
<path d="M83860 77395
L83860 76805
L83804 76889
L83748 76946
L83691 76974
" />
</g>
<g style="fill:#000000; fill-opacity:0.0; 
stroke:#000000; stroke-width:39.3701; stroke-opacity:1; 
stroke-linecap:round; stroke-linejoin:round;">
</g>
<g style="fill:#000000; fill-opacity:0.0; 
stroke:#000000; stroke-width:59.0551; stroke-opacity:1; 
stroke-linecap:round; stroke-linejoin:round;">
<path d="M69685 75396
L112205 75396
" />
</g>
<g style="fill:#000000; fill-opacity:0.0; 
stroke:#000000; stroke-width:39.3701; stroke-opacity:1; 
stroke-linecap:round; stroke-linejoin:round;">
</g>
<g style="fill:#000000; fill-opacity:0.0; 
stroke:#000000; stroke-width:118.11; stroke-opacity:1; 
stroke-linecap:round; stroke-linejoin:round;">
<text x="103544" y="76321.7"
textLength="2336.9" font-size="787.402" lengthAdjust="spacingAndGlyphs"
text-anchor="start" opacity="0">Rev: </text>
<path d="M104099 76293
L103902 76012
" />
<path d="M103761 76293
L103761 75703
L103986 75703
L104042 75731
L104070 75759
L104099 75815
L104099 75899
L104070 75956
L104042 75984
L103986 76012
L103761 76012
" />
<path d="M104577 76265
L104520 76293
L104408 76293
L104352 76265
L104323 76209
L104323 75984
L104352 75928
L104408 75899
L104520 75899
L104577 75928
L104605 75984
L104605 76040
L104323 76096
" />
<path d="M104802 75899
L104942 76293
L105083 75899
" />
<path d="M105308 76237
L105336 76265
L105308 76293
L105280 76265
L105308 76237
L105308 76293
" />
<path d="M105308 75928
L105336 75956
L105308 75984
L105280 75956
L105308 75928
L105308 75984
" />
</g>
<g style="fill:#000000; fill-opacity:0.0; 
stroke:#000000; stroke-width:39.3701; stroke-opacity:1; 
stroke-linecap:round; stroke-linejoin:round;">
</g>
<g style="fill:#000000; fill-opacity:0.0; 
stroke:#000000; stroke-width:59.0551; stroke-opacity:1; 
stroke-linecap:round; stroke-linejoin:round;">
<text x="70079.6" y="76321.7"
textLength="3781.21" font-size="787.402" lengthAdjust="spacingAndGlyphs"
text-anchor="start" opacity="0">Size: A4</text>
<path d="M70221 76265
L70305 76293
L70446 76293
L70502 76265
L70530 76237
L70559 76181
L70559 76124
L70530 76068
L70502 76040
L70446 76012
L70334 75984
L70277 75956
L70249 75928
L70221 75871
L70221 75815
L70249 75759
L70277 75731
L70334 75703
L70474 75703
L70559 75731
" />
<path d="M70812 76293
L70812 75899
" />
<path d="M70812 75703
L70784 75731
L70812 75759
L70840 75731
L70812 75703
L70812 75759
" />
<path d="M71037 75899
L71346 75899
L71037 76293
L71346 76293
" />
<path d="M71796 76265
L71740 76293
L71627 76293
L71571 76265
L71543 76209
L71543 75984
L71571 75928
L71627 75899
L71740 75899
L71796 75928
L71824 75984
L71824 76040
L71543 76096
" />
<path d="M72077 76237
L72105 76265
L72077 76293
L72049 76265
L72077 76237
L72077 76293
" />
<path d="M72077 75928
L72105 75956
L72077 75984
L72049 75956
L72077 75928
L72077 75984
" />
<path d="M72780 76124
L73061 76124
" />
<path d="M72724 76293
L72921 75703
L73118 76293
" />
<path d="M73568 75899
L73568 76293
" />
<path d="M73427 75674
L73286 76096
L73652 76096
" />
</g>
<g style="fill:#000000; fill-opacity:0.0; 
stroke:#000000; stroke-width:39.3701; stroke-opacity:1; 
stroke-linecap:round; stroke-linejoin:round;">
</g>
<g style="fill:#000000; fill-opacity:0.0; 
stroke:#000000; stroke-width:59.0551; stroke-opacity:1; 
stroke-linecap:round; stroke-linejoin:round;">
<text x="103544" y="77424.1"
textLength="3349.27" font-size="787.402" lengthAdjust="spacingAndGlyphs"
text-anchor="start" opacity="0">Id: 1/1</text>
<path d="M103714 77395
L103714 76805
" />
<path d="M104248 77395
L104248 76805
" />
<path d="M104248 77367
L104192 77395
L104079 77395
L104023 77367
L103995 77339
L103967 77283
L103967 77114
L103995 77058
L104023 77030
L104079 77002
L104192 77002
L104248 77030
" />
<path d="M104529 77339
L104557 77367
L104529 77395
L104501 77367
L104529 77339
L104529 77395
" />
<path d="M104529 77030
L104557 77058
L104529 77086
L104501 77058
L104529 77030
L104529 77086
" />
<path d="M105570 77395
L105232 77395
" />
<path d="M105401 77395
L105401 76805
L105345 76889
L105289 76946
L105232 76974
" />
<path d="M106245 76777
L105739 77536
" />
<path d="M106751 77395
L106413 77395
" />
<path d="M106582 77395
L106582 76805
L106526 76889
L106470 76946
L106413 76974
" />
</g>
<g style="fill:#000000; fill-opacity:0.0; 
stroke:#000000; stroke-width:39.3701; stroke-opacity:1; 
stroke-linecap:round; stroke-linejoin:round;">
</g>
<g style="fill:#000000; fill-opacity:0.0; 
stroke:#000000; stroke-width:59.0551; stroke-opacity:1; 
stroke-linecap:round; stroke-linejoin:round;">
<path d="M69685 73821
L112205 73821
" />
</g>
<g style="fill:#000000; fill-opacity:0.0; 
stroke:#000000; stroke-width:39.3701; stroke-opacity:1; 
stroke-linecap:round; stroke-linejoin:round;">
</g>
<g style="fill:#000000; fill-opacity:0.0; 
stroke:#000000; stroke-width:157.48; stroke-opacity:1; 
stroke-linecap:round; stroke-linejoin:round;">
<text x="70079.6" y="74924.1"
textLength="3701.14" font-size="1049.87" lengthAdjust="spacingAndGlyphs"
text-anchor="start" opacity="0">Title: </text>
<path d="M70360 74099
L70810 74099
" />
<path d="M70486 74886
L70585 74099
" />
<path d="M70974 74886
L71039 74361
" />
<path d="M71072 74099
L71030 74136
L71063 74174
L71105 74136
L71072 74099
L71063 74174
" />
<path d="M71302 74361
L71602 74361
" />
<path d="M71447 74099
L71363 74774
L71391 74849
L71461 74886
L71536 74886
" />
<path d="M71911 74886
L71841 74849
L71813 74774
L71897 74099
" />
<path d="M72516 74849
L72436 74886
L72286 74886
L72216 74849
L72187 74774
L72225 74474
L72272 74399
L72352 74361
L72501 74361
L72572 74399
L72600 74474
L72591 74549
L72206 74624
" />
<path d="M72895 74811
L72928 74849
L72886 74886
L72853 74849
L72895 74811
L72886 74886
" />
<path d="M72947 74399
L72980 74436
L72937 74474
L72905 74436
L72947 74399
L72937 74474
" />
</g>
<g style="fill:#000000; fill-opacity:0.0; 
stroke:#000000; stroke-width:39.3701; stroke-opacity:1; 
stroke-linecap:round; stroke-linejoin:round;">
</g>
<g style="fill:#000000; fill-opacity:0.0; 
stroke:#000000; stroke-width:59.0551; stroke-opacity:1; 
stroke-linecap:round; stroke-linejoin:round;">
<text x="70079.6" y="73408.3"
textLength="17330.7" font-size="787.402" lengthAdjust="spacingAndGlyphs"
text-anchor="start" opacity="0">File: MainBoardTurningTable.kicad_pcb</text>
<path d="M70446 73070
L70249 73070
" />
<path d="M70249 73380
L70249 72789
L70530 72789
" />
<path d="M70755 73380
L70755 72986
" />
<path d="M70755 72789
L70727 72817
L70755 72845
L70784 72817
L70755 72789
L70755 72845
" />
<path d="M71121 73380
L71065 73352
L71037 73295
L71037 72789
" />
<path d="M71571 73352
L71515 73380
L71402 73380
L71346 73352
L71318 73295
L71318 73070
L71346 73014
L71402 72986
L71515 72986
L71571 73014
L71599 73070
L71599 73127
L71318 73183
" />
<path d="M71852 73323
L71880 73352
L71852 73380
L71824 73352
L71852 73323
L71852 73380
" />
<path d="M71852 73014
L71880 73042
L71852 73070
L71824 73042
L71852 73014
L71852 73070
" />
<path d="M72583 73380
L72583 72789
L72780 73211
L72977 72789
L72977 73380
" />
<path d="M73511 73380
L73511 73070
L73483 73014
L73427 72986
L73314 72986
L73258 73014
" />
<path d="M73511 73352
L73455 73380
L73314 73380
L73258 73352
L73230 73295
L73230 73239
L73258 73183
L73314 73155
L73455 73155
L73511 73127
" />
<path d="M73793 73380
L73793 72986
" />
<path d="M73793 72789
L73764 72817
L73793 72845
L73821 72817
L73793 72789
L73793 72845
" />
<path d="M74074 72986
L74074 73380
" />
<path d="M74074 73042
L74102 73014
L74158 72986
L74242 72986
L74299 73014
L74327 73070
L74327 73380
" />
<path d="M74805 73070
L74889 73099
L74917 73127
L74946 73183
L74946 73267
L74917 73323
L74889 73352
L74833 73380
L74608 73380
L74608 72789
L74805 72789
L74861 72817
L74889 72845
L74917 72902
L74917 72958
L74889 73014
L74861 73042
L74805 73070
L74608 73070
" />
<path d="M75283 73380
L75227 73352
L75199 73323
L75171 73267
L75171 73099
L75199 73042
L75227 73014
L75283 72986
L75367 72986
L75424 73014
L75452 73042
L75480 73099
L75480 73267
L75452 73323
L75424 73352
L75367 73380
L75283 73380
" />
<path d="M75986 73380
L75986 73070
L75958 73014
L75902 72986
L75789 72986
L75733 73014
" />
<path d="M75986 73352
L75930 73380
L75789 73380
L75733 73352
L75705 73295
L75705 73239
L75733 73183
L75789 73155
L75930 73155
L75986 73127
" />
<path d="M76267 73380
L76267 72986
" />
<path d="M76267 73099
L76295 73042
L76323 73014
L76380 72986
L76436 72986
" />
<path d="M76886 73380
L76886 72789
" />
<path d="M76886 73352
L76830 73380
L76717 73380
L76661 73352
L76633 73323
L76605 73267
L76605 73099
L76633 73042
L76661 73014
L76717 72986
L76830 72986
L76886 73014
" />
<path d="M77083 72789
L77420 72789
" />
<path d="M77251 73380
L77251 72789
" />
<path d="M77870 72986
L77870 73380
" />
<path d="M77617 72986
L77617 73295
L77645 73352
L77701 73380
L77786 73380
L77842 73352
L77870 73323
" />
<path d="M78151 73380
L78151 72986
" />
<path d="M78151 73099
L78180 73042
L78208 73014
L78264 72986
L78320 72986
" />
<path d="M78517 72986
L78517 73380
" />
<path d="M78517 73042
L78545 73014
L78601 72986
L78686 72986
L78742 73014
L78770 73070
L78770 73380
" />
<path d="M79051 73380
L79051 72986
" />
<path d="M79051 72789
L79023 72817
L79051 72845
L79079 72817
L79051 72789
L79051 72845
" />
<path d="M79332 72986
L79332 73380
" />
<path d="M79332 73042
L79361 73014
L79417 72986
L79501 72986
L79557 73014
L79586 73070
L79586 73380
" />
<path d="M80120 72986
L80120 73464
L80092 73520
L80064 73548
L80007 73577
L79923 73577
L79867 73548
" />
<path d="M80120 73352
L80064 73380
L79951 73380
L79895 73352
L79867 73323
L79839 73267
L79839 73099
L79867 73042
L79895 73014
L79951 72986
L80064 72986
L80120 73014
" />
<path d="M80317 72789
L80654 72789
" />
<path d="M80485 73380
L80485 72789
" />
<path d="M81104 73380
L81104 73070
L81076 73014
L81020 72986
L80907 72986
L80851 73014
" />
<path d="M81104 73352
L81048 73380
L80907 73380
L80851 73352
L80823 73295
L80823 73239
L80851 73183
L80907 73155
L81048 73155
L81104 73127
" />
<path d="M81385 73380
L81385 72789
" />
<path d="M81385 73014
L81442 72986
L81554 72986
L81610 73014
L81638 73042
L81667 73099
L81667 73267
L81638 73323
L81610 73352
L81554 73380
L81442 73380
L81385 73352
" />
<path d="M82004 73380
L81948 73352
L81920 73295
L81920 72789
" />
<path d="M82454 73352
L82398 73380
L82285 73380
L82229 73352
L82201 73295
L82201 73070
L82229 73014
L82285 72986
L82398 72986
L82454 73014
L82482 73070
L82482 73127
L82201 73183
" />
<path d="M82735 73323
L82763 73352
L82735 73380
L82707 73352
L82735 73323
L82735 73380
" />
<path d="M83016 73380
L83016 72789
" />
<path d="M83073 73155
L83241 73380
" />
<path d="M83241 72986
L83016 73211
" />
<path d="M83494 73380
L83494 72986
" />
<path d="M83494 72789
L83466 72817
L83494 72845
L83523 72817
L83494 72789
L83494 72845
" />
<path d="M84029 73352
L83973 73380
L83860 73380
L83804 73352
L83776 73323
L83748 73267
L83748 73099
L83776 73042
L83804 73014
L83860 72986
L83973 72986
L84029 73014
" />
<path d="M84535 73380
L84535 73070
L84507 73014
L84451 72986
L84338 72986
L84282 73014
" />
<path d="M84535 73352
L84479 73380
L84338 73380
L84282 73352
L84254 73295
L84254 73239
L84282 73183
L84338 73155
L84479 73155
L84535 73127
" />
<path d="M85069 73380
L85069 72789
" />
<path d="M85069 73352
L85013 73380
L84901 73380
L84844 73352
L84816 73323
L84788 73267
L84788 73099
L84816 73042
L84844 73014
L84901 72986
L85013 72986
L85069 73014
" />
<path d="M85210 73436
L85660 73436
" />
<path d="M85800 72986
L85800 73577
" />
<path d="M85800 73014
L85857 72986
L85969 72986
L86025 73014
L86054 73042
L86082 73099
L86082 73267
L86054 73323
L86025 73352
L85969 73380
L85857 73380
L85800 73352
" />
<path d="M86588 73352
L86532 73380
L86419 73380
L86363 73352
L86335 73323
L86307 73267
L86307 73099
L86335 73042
L86363 73014
L86419 72986
L86532 72986
L86588 73014
" />
<path d="M86841 73380
L86841 72789
" />
<path d="M86841 73014
L86897 72986
L87010 72986
L87066 73014
L87094 73042
L87122 73099
L87122 73267
L87094 73323
L87066 73352
L87010 73380
L86897 73380
L86841 73352
" />
</g>
<g style="fill:#000000; fill-opacity:0.0; 
stroke:#000000; stroke-width:39.3701; stroke-opacity:1; 
stroke-linecap:round; stroke-linejoin:round;">
</g>
<g style="fill:#000000; fill-opacity:0.0; 
stroke:#000000; stroke-width:59.0551; stroke-opacity:1; 
stroke-linecap:round; stroke-linejoin:round;">
<path d="M69685 71459
L112205 71459
" />
</g>
<g style="fill:#000000; fill-opacity:0.0; 
stroke:#000000; stroke-width:39.3701; stroke-opacity:1; 
stroke-linecap:round; stroke-linejoin:round;">
</g>
<g style="fill:#000000; fill-opacity:0.0; 
stroke:#000000; stroke-width:59.0551; stroke-opacity:1; 
stroke-linecap:round; stroke-linejoin:round;">
<text x="70079.6" y="72345.4"
textLength="3236.78" font-size="787.402" lengthAdjust="spacingAndGlyphs"
text-anchor="start" opacity="0">Sheet: </text>
<path d="M70221 72289
L70305 72317
L70446 72317
L70502 72289
L70530 72260
L70559 72204
L70559 72148
L70530 72092
L70502 72064
L70446 72036
L70334 72007
L70277 71979
L70249 71951
L70221 71895
L70221 71839
L70249 71782
L70277 71754
L70334 71726
L70474 71726
L70559 71754
" />
<path d="M70812 72317
L70812 71726
" />
<path d="M71065 72317
L71065 72007
L71037 71951
L70980 71923
L70896 71923
L70840 71951
L70812 71979
" />
<path d="M71571 72289
L71515 72317
L71402 72317
L71346 72289
L71318 72232
L71318 72007
L71346 71951
L71402 71923
L71515 71923
L71571 71951
L71599 72007
L71599 72064
L71318 72120
" />
<path d="M72077 72289
L72021 72317
L71908 72317
L71852 72289
L71824 72232
L71824 72007
L71852 71951
L71908 71923
L72021 71923
L72077 71951
L72105 72007
L72105 72064
L71824 72120
" />
<path d="M72274 71923
L72499 71923
" />
<path d="M72358 71726
L72358 72232
L72386 72289
L72443 72317
L72499 72317
" />
<path d="M72696 72260
L72724 72289
L72696 72317
L72668 72289
L72696 72260
L72696 72317
" />
<path d="M72696 71951
L72724 71979
L72696 72007
L72668 71979
L72696 71951
L72696 72007
" />
</g>
<g style="fill:#000000; fill-opacity:0.0; 
stroke:#000000; stroke-width:39.3701; stroke-opacity:1; 
stroke-linecap:round; stroke-linejoin:round;">
</g>
<g style="fill:#000000; fill-opacity:0.0; 
stroke:#000000; stroke-width:59.0551; stroke-opacity:1; 
stroke-linecap:round; stroke-linejoin:round;">
<path d="M77559 75396
L77559 76577
" />
</g>
<g style="fill:#000000; fill-opacity:0.0; 
stroke:#000000; stroke-width:39.3701; stroke-opacity:1; 
stroke-linecap:round; stroke-linejoin:round;">
</g>
<g style="fill:#000000; fill-opacity:0.0; 
stroke:#000000; stroke-width:59.0551; stroke-opacity:1; 
stroke-linecap:round; stroke-linejoin:round;">
<path d="M102756 75396
L102756 77955
" />
</g>
<g style="fill:#008484; fill-opacity:0.0; 
stroke:#008484; stroke-width:59.0551; stroke-opacity:1; 
stroke-linecap:round; stroke-linejoin:round;">
</g>
<g style="fill:#008484; fill-opacity:0.0; 
stroke:#008484; stroke-width:47.2441; stroke-opacity:1; 
stroke-linecap:round; stroke-linejoin:round;">
<path d="M30807 29543
L33177 29543
" />
<path d="M33177 29543
L33177 27456
" />
<path d="M33177 27456
L30807 27456
" />
<path d="M30807 27456
L30807 29543
" />
<path d="M31212 29657
L32787 29657
" />
<path d="M33177 29000
L32783 29000
" />
<path d="M32783 29000
L32783 28000
" />
<path d="M32783 28000
L33177 28000
" />
<path d="M32783 29000
L32574 28901
" />
<path d="M32574 28901
L32574 28098
" />
<path d="M32574 28098
L32783 28000
" />
<path d="M33177 28901
L32783 28901
" />
<path d="M33177 28098
L32783 28098
" />
<path d="M30807 29314
L31043 29314
" />
<path d="M31043 29314
L31043 28685
" />
<path d="M31043 28685
L30807 28685
" />
<path d="M30807 28314
L31043 28314
" />
<path d="M31043 28314
L31043 27685
" />
<path d="M31043 27685
L30807 27685
" />
<path d="M46250 28000
L63250 28000
" />
<path d="M46250 36200
L46250 28000
" />
<path d="M63250 36200
L46250 36200
" />
<path d="M63250 28000
L63250 36200
" />
<path d="M30807 36043
L33177 36043
" />
<path d="M33177 36043
L33177 31956
" />
<path d="M33177 31956
L30807 31956
" />
<path d="M30807 31956
L30807 36043
" />
<path d="M31212 36157
L32787 36157
" />
<path d="M33177 35500
L32783 35500
" />
<path d="M32783 35500
L32783 32500
" />
<path d="M32783 32500
L33177 32500
" />
<path d="M32783 35500
L32574 35401
" />
<path d="M32574 35401
L32574 32598
" />
<path d="M32574 32598
L32783 32500
" />
<path d="M33177 35401
L32783 35401
" />
<path d="M33177 32598
L32783 32598
" />
<path d="M30807 35814
L31043 35814
" />
<path d="M31043 35814
L31043 35185
" />
<path d="M31043 35185
L30807 35185
" />
<path d="M30807 34814
L31043 34814
" />
<path d="M31043 34814
L31043 34185
" />
<path d="M31043 34185
L30807 34185
" />
<path d="M30807 33814
L31043 33814
" />
<path d="M31043 33814
L31043 33185
" />
<path d="M31043 33185
L30807 33185
" />
<path d="M30807 32814
L31043 32814
" />
<path d="M31043 32814
L31043 32185
" />
<path d="M31043 32185
L30807 32185
" />
</g>
<g style="fill:#008484; fill-opacity:0.0; 
stroke:#008484; stroke-width:50; stroke-opacity:1; 
stroke-linecap:round; stroke-linejoin:round;">
<path d="M44500 36250
L38500 36250
" />
<path d="M44500 28250
L44500 36250
" />
<path d="M38500 36250
L38500 28250
" />
<path d="M38500 28250
L44500 28250
" />
</g>
<g style="fill:#008484; fill-opacity:0.0; 
stroke:#008484; stroke-width:78.7402; stroke-opacity:1; 
stroke-linecap:round; stroke-linejoin:round;">
<circle cx="44885.8" cy="35793.3" r="39.3701" /> 
</g>
<g style="fill:#008484; fill-opacity:0.0; 
stroke:#008484; stroke-width:47.2441; stroke-opacity:1; 
stroke-linecap:round; stroke-linejoin:round;">
<path d="M72236 38919
L74606 38919
" />
<path d="M74606 38919
L74606 34832
" />
<path d="M74606 34832
L72236 34832
" />
<path d="M72236 34832
L72236 38919
" />
<path d="M72641 39033
L74216 39033
" />
<path d="M74606 38375
L74212 38375
" />
<path d="M74212 38375
L74212 35375
" />
<path d="M74212 35375
L74606 35375
" />
<path d="M74212 38375
L74003 38277
" />
<path d="M74003 38277
L74003 35474
" />
<path d="M74003 35474
L74212 35375
" />
<path d="M74606 38277
L74212 38277
" />
<path d="M74606 35474
L74212 35474
" />
<path d="M72236 38690
L72472 38690
" />
<path d="M72472 38690
L72472 38061
" />
<path d="M72472 38061
L72236 38061
" />
<path d="M72236 37690
L72472 37690
" />
<path d="M72472 37690
L72472 37061
" />
<path d="M72472 37061
L72236 37061
" />
<path d="M72236 36690
L72472 36690
" />
<path d="M72472 36690
L72472 36061
" />
<path d="M72472 36061
L72236 36061
" />
<path d="M72236 35690
L72472 35690
" />
<path d="M72472 35690
L72472 35061
" />
<path d="M72472 35061
L72236 35061
" />
<path d="M74316 29102
L74316 32535
" />
<path d="M74316 32535
L72183 32535
" />
<path d="M72183 29102
L72183 32535
" />
<path d="M73805 28433
L74316 29102
" />
<path d="M72694 28433
L72183 29102
" />
<path d="M73805 28433
L72694 28433
" />
<circle cx="41757.9" cy="32250" r="1031.5" /> 
<path d="M41757 33265
L41757 31234
" />
<path d="M41742 33265
L41742 31234
" />
<path d="M41726 33265
L41726 31234
" />
<path d="M41710 33264
L41710 31235
" />
<path d="M41694 33264
L41694 31235
" />
<path d="M41679 33262
L41679 31237
" />
<path d="M41663 33261
L41663 32659
" />
<path d="M41663 31840
L41663 31238
" />
<path d="M41647 33259
L41647 32659
" />
<path d="M41647 31840
L41647 31240
" />
<path d="M41631 33258
L41631 32659
" />
<path d="M41631 31840
L41631 31241
" />
<path d="M41616 33256
L41616 32659
" />
<path d="M41616 31840
L41616 31243
" />
<path d="M41600 33253
L41600 32659
" />
<path d="M41600 31840
L41600 31246
" />
<path d="M41584 33251
L41584 32659
" />
<path d="M41584 31840
L41584 31248
" />
<path d="M41568 33248
L41568 32659
" />
<path d="M41568 31840
L41568 31251
" />
<path d="M41553 33245
L41553 32659
" />
<path d="M41553 31840
L41553 31254
" />
<path d="M41537 33242
L41537 32659
" />
<path d="M41537 31840
L41537 31257
" />
<path d="M41521 33238
L41521 32659
" />
<path d="M41521 31840
L41521 31261
" />
<path d="M41505 33234
L41505 32659
" />
<path d="M41505 31840
L41505 31265
" />
<path d="M41490 33230
L41490 32659
" />
<path d="M41490 31840
L41490 31269
" />
<path d="M41474 33226
L41474 32659
" />
<path d="M41474 31840
L41474 31273
" />
<path d="M41458 33221
L41458 32659
" />
<path d="M41458 31840
L41458 31278
" />
<path d="M41442 33216
L41442 32659
" />
<path d="M41442 31840
L41442 31283
" />
<path d="M41426 33211
L41426 32659
" />
<path d="M41426 31840
L41426 31288
" />
<path d="M41411 33205
L41411 32659
" />
<path d="M41411 31840
L41411 31294
" />
<path d="M41395 33200
L41395 32659
" />
<path d="M41395 31840
L41395 31299
" />
<path d="M41379 33194
L41379 32659
" />
<path d="M41379 31840
L41379 31305
" />
<path d="M41363 33187
L41363 32659
" />
<path d="M41363 31840
L41363 31312
" />
<path d="M41348 33181
L41348 32659
" />
<path d="M41348 31840
L41348 31318
" />
<path d="M41332 33174
L41332 32659
" />
<path d="M41332 31840
L41332 31325
" />
<path d="M41316 33166
L41316 32659
" />
<path d="M41316 31840
L41316 31333
" />
<path d="M41300 33159
L41300 32659
" />
<path d="M41300 31840
L41300 31340
" />
<path d="M41285 33151
L41285 32659
" />
<path d="M41285 31840
L41285 31348
" />
<path d="M41269 33142
L41269 32659
" />
<path d="M41269 31840
L41269 31357
" />
<path d="M41253 33134
L41253 32659
" />
<path d="M41253 31840
L41253 31365
" />
<path d="M41237 33125
L41237 32659
" />
<path d="M41237 31840
L41237 31374
" />
<path d="M41222 33116
L41222 32659
" />
<path d="M41222 31840
L41222 31383
" />
<path d="M41206 33106
L41206 32659
" />
<path d="M41206 31840
L41206 31393
" />
<path d="M41190 33096
L41190 32659
" />
<path d="M41190 31840
L41190 31403
" />
<path d="M41174 33085
L41174 32659
" />
<path d="M41174 31840
L41174 31414
" />
<path d="M41159 33074
L41159 32659
" />
<path d="M41159 31840
L41159 31425
" />
<path d="M41143 33062
L41143 32659
" />
<path d="M41143 31840
L41143 31437
" />
<path d="M41127 33051
L41127 32659
" />
<path d="M41127 31840
L41127 31448
" />
<path d="M41111 33038
L41111 32659
" />
<path d="M41111 31840
L41111 31461
" />
<path d="M41096 33025
L41096 32659
" />
<path d="M41096 31840
L41096 31474
" />
<path d="M41080 33012
L41080 32659
" />
<path d="M41080 31840
L41080 31487
" />
<path d="M41064 32998
L41064 32659
" />
<path d="M41064 31840
L41064 31501
" />
<path d="M41048 32983
L41048 32659
" />
<path d="M41048 31840
L41048 31516
" />
<path d="M41033 32968
L41033 32659
" />
<path d="M41033 31840
L41033 31531
" />
<path d="M41017 32952
L41017 32659
" />
<path d="M41017 31840
L41017 31547
" />
<path d="M41001 32936
L41001 32659
" />
<path d="M41001 31840
L41001 31563
" />
<path d="M40985 32918
L40985 32659
" />
<path d="M40985 31840
L40985 31581
" />
<path d="M40970 32900
L40970 32659
" />
<path d="M40970 31840
L40970 31599
" />
<path d="M40954 32881
L40954 32659
" />
<path d="M40954 31840
L40954 31618
" />
<path d="M40938 32861
L40938 32659
" />
<path d="M40938 31840
L40938 31638
" />
<path d="M40922 32840
L40922 32659
" />
<path d="M40922 31840
L40922 31659
" />
<path d="M40907 32818
L40907 32659
" />
<path d="M40907 31840
L40907 31681
" />
<path d="M40891 32794
L40891 32659
" />
<path d="M40891 31840
L40891 31705
" />
<path d="M40875 32769
L40875 32659
" />
<path d="M40875 31840
L40875 31730
" />
<path d="M40859 32742
L40859 32659
" />
<path d="M40859 31840
L40859 31757
" />
<path d="M40844 32713
L40844 31786
" />
<path d="M40828 32682
L40828 31817
" />
<path d="M40812 32648
L40812 31851
" />
<path d="M40796 32610
L40796 31889
" />
<path d="M40781 32566
L40781 31933
" />
<path d="M40765 32516
L40765 31983
" />
<path d="M40749 32453
L40749 32046
" />
<path d="M40733 32361
L40733 32138
" />
<path d="M42862 32830
L42665 32830
" />
<path d="M42763 32929
L42763 32732
" />
<path d="M69442 34706
L67072 34706
" />
<path d="M67072 34706
L67072 38793
" />
<path d="M67072 38793
L69442 38793
" />
<path d="M69442 38793
L69442 34706
" />
<path d="M69037 34592
L67462 34592
" />
<path d="M67072 35250
L67466 35250
" />
<path d="M67466 35250
L67466 38250
" />
<path d="M67466 38250
L67072 38250
" />
<path d="M67466 35250
L67675 35348
" />
<path d="M67675 35348
L67675 38151
" />
<path d="M67675 38151
L67466 38250
" />
<path d="M67072 35348
L67466 35348
" />
<path d="M67072 38151
L67466 38151
" />
<path d="M69442 34935
L69206 34935
" />
<path d="M69206 34935
L69206 35564
" />
<path d="M69206 35564
L69442 35564
" />
<path d="M69442 35935
L69206 35935
" />
<path d="M69206 35935
L69206 36564
" />
<path d="M69206 36564
L69442 36564
" />
<path d="M69442 36935
L69206 36935
" />
<path d="M69206 36935
L69206 37564
" />
<path d="M69206 37564
L69442 37564
" />
<path d="M69442 37935
L69206 37935
" />
<path d="M69206 37935
L69206 38564
" />
<path d="M69206 38564
L69442 38564
" />
<path d="M69316 29102
L69316 32535
" />
<path d="M69316 32535
L67183 32535
" />
<path d="M67183 29102
L67183 32535
" />
<path d="M68805 28433
L69316 29102
" />
<path d="M67694 28433
L67183 29102
" />
<path d="M68805 28433
L67694 28433
" />
</g>
<g style="fill:#008484; fill-opacity:0.0; 
stroke:#008484; stroke-width:59.0551; stroke-opacity:1; 
stroke-linecap:round; stroke-linejoin:round;">
<g transform="rotate(-90 30378 28500)">
<text x="30378" y="28696.9"
textLength="1258.91" font-size="524.934" lengthAdjust="spacingAndGlyphs"
text-anchor="middle" opacity="0">SW2</text>
</g>
<path d="M30537 29024
L30556 28968
L30556 28874
L30537 28837
L30518 28818
L30481 28799
L30443 28799
L30406 28818
L30387 28837
L30368 28874
L30349 28949
L30331 28987
L30312 29006
L30274 29024
L30237 29024
L30199 29006
L30181 28987
L30162 28949
L30162 28856
L30181 28799
" />
<path d="M30162 28668
L30556 28574
L30274 28500
L30556 28425
L30162 28331
" />
<path d="M30199 28200
L30181 28181
L30162 28143
L30162 28050
L30181 28012
L30199 27993
L30237 27975
L30274 27975
L30331 27993
L30556 28218
L30556 27975
" />
<g transform="rotate(-90 65582.7 34181.1)">
<text x="65582.7" y="34378"
textLength="1276.62" font-size="524.934" lengthAdjust="spacingAndGlyphs"
text-anchor="middle" opacity="0">SW1</text>
</g>
<path d="M65742 34706
L65760 34649
L65760 34556
L65742 34518
L65723 34499
L65685 34481
L65648 34481
L65610 34499
L65592 34518
L65573 34556
L65554 34631
L65535 34668
L65517 34687
L65479 34706
L65442 34706
L65404 34687
L65385 34668
L65367 34631
L65367 34537
L65385 34481
" />
<path d="M65367 34349
L65760 34256
L65479 34181
L65760 34106
L65367 34012
" />
<path d="M65760 33656
L65760 33881
" />
<path d="M65760 33768
L65367 33768
L65423 33806
L65460 33843
L65479 33881
" />
<text x="62250" y="26696.9"
textLength="1220.38" font-size="524.934" lengthAdjust="spacingAndGlyphs"
text-anchor="middle" opacity="0">PS1</text>
<path d="M61771 26678
L61771 26284
L61921 26284
L61959 26303
L61978 26321
L61996 26359
L61996 26415
L61978 26453
L61959 26471
L61921 26490
L61771 26490
" />
<path d="M62146 26659
L62203 26678
L62296 26678
L62334 26659
L62353 26640
L62371 26603
L62371 26565
L62353 26528
L62334 26509
L62296 26490
L62221 26471
L62184 26453
L62165 26434
L62146 26396
L62146 26359
L62165 26321
L62184 26303
L62221 26284
L62315 26284
L62371 26303
" />
<path d="M62746 26678
L62521 26678
" />
<path d="M62634 26678
L62634 26284
L62596 26340
L62559 26378
L62521 26396
" />
<text x="62500" y="34696.9"
textLength="1164.14" font-size="524.934" lengthAdjust="spacingAndGlyphs"
text-anchor="middle" opacity="0">IN+</text>
<path d="M62050 34678
L62050 34284
" />
<path d="M62237 34678
L62237 34284
L62462 34678
L62462 34284
" />
<path d="M62649 34528
L62949 34528
" />
<path d="M62799 34678
L62799 34378
" />
<text x="62500" y="29896.9"
textLength="1164.14" font-size="524.934" lengthAdjust="spacingAndGlyphs"
text-anchor="middle" opacity="0">IN-</text>
<path d="M62050 29878
L62050 29484
" />
<path d="M62237 29878
L62237 29484
L62462 29878
L62462 29484
" />
<path d="M62649 29728
L62949 29728
" />
<text x="47050" y="34696.9"
textLength="1689.07" font-size="524.934" lengthAdjust="spacingAndGlyphs"
text-anchor="middle" opacity="0">OUT+</text>
<path d="M46412 34284
L46487 34284
L46525 34303
L46562 34340
L46581 34415
L46581 34546
L46562 34621
L46525 34659
L46487 34678
L46412 34678
L46375 34659
L46337 34621
L46318 34546
L46318 34415
L46337 34340
L46375 34303
L46412 34284
" />
<path d="M46750 34284
L46750 34603
L46768 34640
L46787 34659
L46825 34678
L46900 34678
L46937 34659
L46956 34640
L46975 34603
L46975 34284
" />
<path d="M47106 34284
L47331 34284
" />
<path d="M47218 34678
L47218 34284
" />
<path d="M47462 34528
L47762 34528
" />
<path d="M47612 34678
L47612 34378
" />
<text x="47050" y="29896.9"
textLength="1689.07" font-size="524.934" lengthAdjust="spacingAndGlyphs"
text-anchor="middle" opacity="0">OUT-</text>
<path d="M46412 29484
L46487 29484
L46525 29503
L46562 29540
L46581 29615
L46581 29746
L46562 29821
L46525 29859
L46487 29878
L46412 29878
L46375 29859
L46337 29821
L46318 29746
L46318 29615
L46337 29540
L46375 29503
L46412 29484
" />
<path d="M46750 29484
L46750 29803
L46768 29840
L46787 29859
L46825 29878
L46900 29878
L46937 29859
L46956 29840
L46975 29803
L46975 29484
" />
<path d="M47106 29484
L47331 29484
" />
<path d="M47218 29878
L47218 29484
" />
<path d="M47462 29728
L47762 29728
" />
<text x="58750" y="32996.9"
textLength="5419.85" font-size="524.934" lengthAdjust="spacingAndGlyphs"
text-anchor="middle" opacity="0">Input: DC 5V-38V</text>
<path d="M56172 32978
L56172 32584
" />
<path d="M56359 32715
L56359 32978
" />
<path d="M56359 32753
L56378 32734
L56415 32715
L56472 32715
L56509 32734
L56528 32771
L56528 32978
" />
<path d="M56715 32715
L56715 33109
" />
<path d="M56715 32734
L56753 32715
L56828 32715
L56865 32734
L56884 32753
L56903 32790
L56903 32903
L56884 32940
L56865 32959
L56828 32978
L56753 32978
L56715 32959
" />
<path d="M57240 32715
L57240 32978
" />
<path d="M57072 32715
L57072 32921
L57090 32959
L57128 32978
L57184 32978
L57222 32959
L57240 32940
" />
<path d="M57372 32715
L57522 32715
" />
<path d="M57428 32584
L57428 32921
L57447 32959
L57484 32978
L57522 32978
" />
<path d="M57653 32940
L57672 32959
L57653 32978
L57634 32959
L57653 32940
L57653 32978
" />
<path d="M57653 32734
L57672 32753
L57653 32771
L57634 32753
L57653 32734
L57653 32771
" />
<path d="M58140 32978
L58140 32584
L58234 32584
L58290 32603
L58328 32640
L58346 32678
L58365 32753
L58365 32809
L58346 32884
L58328 32921
L58290 32959
L58234 32978
L58140 32978
" />
<path d="M58759 32940
L58740 32959
L58684 32978
L58646 32978
L58590 32959
L58553 32921
L58534 32884
L58515 32809
L58515 32753
L58534 32678
L58553 32640
L58590 32603
L58646 32584
L58684 32584
L58740 32603
L58759 32621
" />
<path d="M59415 32584
L59228 32584
L59209 32771
L59228 32753
L59265 32734
L59359 32734
L59396 32753
L59415 32771
L59434 32809
L59434 32903
L59415 32940
L59396 32959
L59359 32978
L59265 32978
L59228 32959
L59209 32940
" />
<path d="M59546 32584
L59678 32978
L59809 32584
" />
<path d="M59940 32828
L60240 32828
" />
<path d="M60390 32584
L60634 32584
L60502 32734
L60559 32734
L60596 32753
L60615 32771
L60634 32809
L60634 32903
L60615 32940
L60596 32959
L60559 32978
L60446 32978
L60409 32959
L60390 32940
" />
<path d="M60859 32753
L60821 32734
L60802 32715
L60784 32678
L60784 32659
L60802 32621
L60821 32603
L60859 32584
L60934 32584
L60971 32603
L60990 32621
L61009 32659
L61009 32678
L60990 32715
L60971 32734
L60934 32753
L60859 32753
L60821 32771
L60802 32790
L60784 32828
L60784 32903
L60802 32940
L60821 32959
L60859 32978
L60934 32978
L60971 32959
L60990 32940
L61009 32903
L61009 32828
L60990 32790
L60971 32771
L60934 32753
" />
<path d="M61121 32584
L61252 32978
L61384 32584
" />
<text x="54650" y="32296.9"
textLength="13706.3" font-size="524.934" lengthAdjust="spacingAndGlyphs"
text-anchor="middle" opacity="0">Output: DC 1.25V-36V (adj.) | max. 5A/75W</text>
<path d="M48003 31884
L48078 31884
L48116 31903
L48153 31940
L48172 32015
L48172 32146
L48153 32221
L48116 32259
L48078 32278
L48003 32278
L47966 32259
L47928 32221
L47910 32146
L47910 32015
L47928 31940
L47966 31903
L48003 31884
" />
<path d="M48510 32015
L48510 32278
" />
<path d="M48341 32015
L48341 32221
L48360 32259
L48397 32278
L48453 32278
L48491 32259
L48510 32240
" />
<path d="M48641 32015
L48791 32015
" />
<path d="M48697 31884
L48697 32221
L48716 32259
L48753 32278
L48791 32278
" />
<path d="M48922 32015
L48922 32409
" />
<path d="M48922 32034
L48960 32015
L49035 32015
L49072 32034
L49091 32053
L49110 32090
L49110 32203
L49091 32240
L49072 32259
L49035 32278
L48960 32278
L48922 32259
" />
<path d="M49447 32015
L49447 32278
" />
<path d="M49278 32015
L49278 32221
L49297 32259
L49335 32278
L49391 32278
L49428 32259
L49447 32240
" />
<path d="M49578 32015
L49728 32015
" />
<path d="M49635 31884
L49635 32221
L49653 32259
L49691 32278
L49728 32278
" />
<path d="M49859 32240
L49878 32259
L49859 32278
L49841 32259
L49859 32240
L49859 32278
" />
<path d="M49859 32034
L49878 32053
L49859 32071
L49841 32053
L49859 32034
L49859 32071
" />
<path d="M50347 32278
L50347 31884
L50441 31884
L50497 31903
L50534 31940
L50553 31978
L50572 32053
L50572 32109
L50553 32184
L50534 32221
L50497 32259
L50441 32278
L50347 32278
" />
<path d="M50966 32240
L50947 32259
L50891 32278
L50853 32278
L50797 32259
L50759 32221
L50741 32184
L50722 32109
L50722 32053
L50741 31978
L50759 31940
L50797 31903
L50853 31884
L50891 31884
L50947 31903
L50966 31921
" />
<path d="M51641 32278
L51416 32278
" />
<path d="M51528 32278
L51528 31884
L51491 31940
L51453 31978
L51416 31996
" />
<path d="M51809 32240
L51828 32259
L51809 32278
L51790 32259
L51809 32240
L51809 32278
" />
<path d="M51978 31921
L51997 31903
L52034 31884
L52128 31884
L52165 31903
L52184 31921
L52203 31959
L52203 31996
L52184 32053
L51959 32278
L52203 32278
" />
<path d="M52559 31884
L52372 31884
L52353 32071
L52372 32053
L52409 32034
L52503 32034
L52540 32053
L52559 32071
L52578 32109
L52578 32203
L52559 32240
L52540 32259
L52503 32278
L52409 32278
L52372 32259
L52353 32240
" />
<path d="M52690 31884
L52822 32278
L52953 31884
" />
<path d="M53084 32128
L53384 32128
" />
<path d="M53534 31884
L53778 31884
L53647 32034
L53703 32034
L53740 32053
L53759 32071
L53778 32109
L53778 32203
L53759 32240
L53740 32259
L53703 32278
L53590 32278
L53553 32259
L53534 32240
" />
<path d="M54115 31884
L54040 31884
L54003 31903
L53984 31921
L53946 31978
L53928 32053
L53928 32203
L53946 32240
L53965 32259
L54003 32278
L54078 32278
L54115 32259
L54134 32240
L54153 32203
L54153 32109
L54134 32071
L54115 32053
L54078 32034
L54003 32034
L53965 32053
L53946 32071
L53928 32109
" />
<path d="M54265 31884
L54396 32278
L54528 31884
" />
<path d="M55071 32428
L55053 32409
L55015 32353
L54996 32315
L54978 32259
L54959 32165
L54959 32090
L54978 31996
L54996 31940
L55015 31903
L55053 31846
L55071 31828
" />
<path d="M55390 32278
L55390 32071
L55371 32034
L55334 32015
L55259 32015
L55221 32034
" />
<path d="M55390 32259
L55353 32278
L55259 32278
L55221 32259
L55203 32221
L55203 32184
L55221 32146
L55259 32128
L55353 32128
L55390 32109
" />
<path d="M55746 32278
L55746 31884
" />
<path d="M55746 32259
L55709 32278
L55634 32278
L55596 32259
L55578 32240
L55559 32203
L55559 32090
L55578 32053
L55596 32034
L55634 32015
L55709 32015
L55746 32034
" />
<path d="M55934 32015
L55934 32353
L55915 32390
L55877 32409
L55859 32409
" />
<path d="M55934 31884
L55915 31903
L55934 31921
L55952 31903
L55934 31884
L55934 31921
" />
<path d="M56121 32240
L56140 32259
L56121 32278
L56102 32259
L56121 32240
L56121 32278
" />
<path d="M56271 32428
L56290 32409
L56327 32353
L56346 32315
L56365 32259
L56384 32165
L56384 32090
L56365 31996
L56346 31940
L56327 31903
L56290 31846
L56271 31828
" />
<path d="M56965 32409
L56965 31846
" />
<path d="M57546 32278
L57546 32015
" />
<path d="M57546 32053
L57565 32034
L57602 32015
L57658 32015
L57696 32034
L57715 32071
L57715 32278
" />
<path d="M57715 32071
L57733 32034
L57771 32015
L57827 32015
L57865 32034
L57883 32071
L57883 32278
" />
<path d="M58240 32278
L58240 32071
L58221 32034
L58183 32015
L58108 32015
L58071 32034
" />
<path d="M58240 32259
L58202 32278
L58108 32278
L58071 32259
L58052 32221
L58052 32184
L58071 32146
L58108 32128
L58202 32128
L58240 32109
" />
<path d="M58390 32278
L58596 32015
" />
<path d="M58390 32015
L58596 32278
" />
<path d="M58746 32240
L58765 32259
L58746 32278
L58727 32259
L58746 32240
L58746 32278
" />
<path d="M59421 31884
L59233 31884
L59215 32071
L59233 32053
L59271 32034
L59365 32034
L59402 32053
L59421 32071
L59440 32109
L59440 32203
L59421 32240
L59402 32259
L59365 32278
L59271 32278
L59233 32259
L59215 32240
" />
<path d="M59590 32165
L59777 32165
" />
<path d="M59552 32278
L59683 31884
L59814 32278
" />
<path d="M60227 31865
L59889 32371
" />
<path d="M60321 31884
L60583 31884
L60414 32278
" />
<path d="M60921 31884
L60733 31884
L60714 32071
L60733 32053
L60771 32034
L60864 32034
L60902 32053
L60921 32071
L60939 32109
L60939 32203
L60921 32240
L60902 32259
L60864 32278
L60771 32278
L60733 32259
L60714 32240
" />
<path d="M61071 31884
L61164 32278
L61239 31996
L61314 32278
L61408 31884
" />
<text x="54650" y="31596.9"
textLength="13593.8" font-size="524.934" lengthAdjust="spacingAndGlyphs"
text-anchor="middle" opacity="0">Better under 4.5A - If &gt; 50W need heatsink</text>
<path d="M48116 31371
L48172 31390
L48191 31409
L48210 31446
L48210 31503
L48191 31540
L48172 31559
L48135 31578
L47985 31578
L47985 31184
L48116 31184
L48153 31203
L48172 31221
L48191 31259
L48191 31296
L48172 31334
L48153 31353
L48116 31371
L47985 31371
" />
<path d="M48528 31559
L48491 31578
L48416 31578
L48378 31559
L48360 31521
L48360 31371
L48378 31334
L48416 31315
L48491 31315
L48528 31334
L48547 31371
L48547 31409
L48360 31446
" />
<path d="M48660 31315
L48810 31315
" />
<path d="M48716 31184
L48716 31521
L48735 31559
L48772 31578
L48810 31578
" />
<path d="M48885 31315
L49035 31315
" />
<path d="M48941 31184
L48941 31521
L48960 31559
L48997 31578
L49035 31578
" />
<path d="M49316 31559
L49278 31578
L49203 31578
L49166 31559
L49147 31521
L49147 31371
L49166 31334
L49203 31315
L49278 31315
L49316 31334
L49335 31371
L49335 31409
L49147 31446
" />
<path d="M49503 31578
L49503 31315
" />
<path d="M49503 31390
L49522 31353
L49541 31334
L49578 31315
L49616 31315
" />
<path d="M50216 31315
L50216 31578
" />
<path d="M50047 31315
L50047 31521
L50066 31559
L50103 31578
L50159 31578
L50197 31559
L50216 31540
" />
<path d="M50403 31315
L50403 31578
" />
<path d="M50403 31353
L50422 31334
L50459 31315
L50516 31315
L50553 31334
L50572 31371
L50572 31578
" />
<path d="M50928 31578
L50928 31184
" />
<path d="M50928 31559
L50891 31578
L50816 31578
L50778 31559
L50759 31540
L50741 31503
L50741 31390
L50759 31353
L50778 31334
L50816 31315
L50891 31315
L50928 31334
" />
<path d="M51266 31559
L51228 31578
L51153 31578
L51116 31559
L51097 31521
L51097 31371
L51116 31334
L51153 31315
L51228 31315
L51266 31334
L51284 31371
L51284 31409
L51097 31446
" />
<path d="M51453 31578
L51453 31315
" />
<path d="M51453 31390
L51472 31353
L51491 31334
L51528 31315
L51566 31315
" />
<path d="M52165 31315
L52165 31578
" />
<path d="M52072 31165
L51978 31446
L52222 31446
" />
<path d="M52372 31540
L52390 31559
L52372 31578
L52353 31559
L52372 31540
L52372 31578
" />
<path d="M52747 31184
L52559 31184
L52540 31371
L52559 31353
L52597 31334
L52690 31334
L52728 31353
L52747 31371
L52765 31409
L52765 31503
L52747 31540
L52728 31559
L52690 31578
L52597 31578
L52559 31559
L52540 31540
" />
<path d="M52915 31465
L53103 31465
" />
<path d="M52878 31578
L53009 31184
L53140 31578
" />
<path d="M53572 31428
L53871 31428
" />
<path d="M54359 31578
L54359 31184
" />
<path d="M54490 31315
L54640 31315
" />
<path d="M54546 31578
L54546 31240
L54565 31203
L54603 31184
L54640 31184
" />
<path d="M55071 31315
L55371 31428
L55071 31540
" />
<path d="M56046 31184
L55859 31184
L55840 31371
L55859 31353
L55896 31334
L55990 31334
L56027 31353
L56046 31371
L56065 31409
L56065 31503
L56046 31540
L56027 31559
L55990 31578
L55896 31578
L55859 31559
L55840 31540
" />
<path d="M56309 31184
L56346 31184
L56384 31203
L56402 31221
L56421 31259
L56440 31334
L56440 31428
L56421 31503
L56402 31540
L56384 31559
L56346 31578
L56309 31578
L56271 31559
L56252 31540
L56234 31503
L56215 31428
L56215 31334
L56234 31259
L56252 31221
L56271 31203
L56309 31184
" />
<path d="M56571 31184
L56665 31578
L56740 31296
L56815 31578
L56909 31184
" />
<path d="M57359 31315
L57359 31578
" />
<path d="M57359 31353
L57377 31334
L57415 31315
L57471 31315
L57509 31334
L57527 31371
L57527 31578
" />
<path d="M57865 31559
L57827 31578
L57752 31578
L57715 31559
L57696 31521
L57696 31371
L57715 31334
L57752 31315
L57827 31315
L57865 31334
L57883 31371
L57883 31409
L57696 31446
" />
<path d="M58202 31559
L58165 31578
L58090 31578
L58052 31559
L58033 31521
L58033 31371
L58052 31334
L58090 31315
L58165 31315
L58202 31334
L58221 31371
L58221 31409
L58033 31446
" />
<path d="M58558 31578
L58558 31184
" />
<path d="M58558 31559
L58521 31578
L58446 31578
L58408 31559
L58390 31540
L58371 31503
L58371 31390
L58390 31353
L58408 31334
L58446 31315
L58521 31315
L58558 31334
" />
<path d="M59046 31578
L59046 31184
" />
<path d="M59215 31578
L59215 31371
L59196 31334
L59158 31315
L59102 31315
L59065 31334
L59046 31353
" />
<path d="M59552 31559
L59515 31578
L59440 31578
L59402 31559
L59383 31521
L59383 31371
L59402 31334
L59440 31315
L59515 31315
L59552 31334
L59571 31371
L59571 31409
L59383 31446
" />
<path d="M59908 31578
L59908 31371
L59889 31334
L59852 31315
L59777 31315
L59739 31334
" />
<path d="M59908 31559
L59871 31578
L59777 31578
L59739 31559
L59721 31521
L59721 31484
L59739 31446
L59777 31428
L59871 31428
L59908 31409
" />
<path d="M60039 31315
L60189 31315
" />
<path d="M60096 31184
L60096 31521
L60114 31559
L60152 31578
L60189 31578
" />
<path d="M60302 31559
L60339 31578
L60414 31578
L60452 31559
L60471 31521
L60471 31503
L60452 31465
L60414 31446
L60358 31446
L60321 31428
L60302 31390
L60302 31371
L60321 31334
L60358 31315
L60414 31315
L60452 31334
" />
<path d="M60639 31578
L60639 31315
" />
<path d="M60639 31184
L60621 31203
L60639 31221
L60658 31203
L60639 31184
L60639 31221
" />
<path d="M60827 31315
L60827 31578
" />
<path d="M60827 31353
L60846 31334
L60883 31315
L60939 31315
L60977 31334
L60996 31371
L60996 31578
" />
<path d="M61183 31578
L61183 31184
" />
<path d="M61221 31428
L61333 31578
" />
<path d="M61333 31315
L61183 31465
" />
<g transform="rotate(-90 30378 34000)">
<text x="30378" y="34196.9"
textLength="1501.59" font-size="524.934" lengthAdjust="spacingAndGlyphs"
text-anchor="middle" opacity="0">MSt1</text>
</g>
<path d="M30556 34618
L30162 34618
L30443 34487
L30162 34356
L30556 34356
" />
<path d="M30537 34187
L30556 34131
L30556 34037
L30537 34000
L30518 33981
L30481 33962
L30443 33962
L30406 33981
L30387 34000
L30368 34037
L30349 34112
L30331 34149
L30312 34168
L30274 34187
L30237 34187
L30199 34168
L30181 34149
L30162 34112
L30162 34018
L30181 33962
" />
<path d="M30293 33850
L30293 33700
" />
<path d="M30162 33793
L30499 33793
L30537 33775
L30556 33737
L30556 33700
" />
<path d="M30556 33362
L30556 33587
" />
<path d="M30556 33475
L30162 33475
L30218 33512
L30256 33550
L30274 33587
" />
<g transform="rotate(-90 63417.3 30068.9)">
<text x="63417.3" y="30265.7"
textLength="1689.07" font-size="524.934" lengthAdjust="spacingAndGlyphs"
text-anchor="middle" opacity="0">Emg1</text>
</g>
<path d="M63389 30781
L63389 30650
" />
<path d="M63595 30593
L63595 30781
L63201 30781
L63201 30593
" />
<path d="M63595 30425
L63332 30425
" />
<path d="M63370 30425
L63351 30406
L63332 30368
L63332 30312
L63351 30275
L63389 30256
L63595 30256
" />
<path d="M63389 30256
L63351 30237
L63332 30200
L63332 30143
L63351 30106
L63389 30087
L63595 30087
" />
<path d="M63332 29731
L63651 29731
L63689 29750
L63707 29768
L63726 29806
L63726 29862
L63707 29900
" />
<path d="M63576 29731
L63595 29768
L63595 29843
L63576 29881
L63557 29900
L63520 29918
L63407 29918
L63370 29900
L63351 29881
L63332 29843
L63332 29768
L63351 29731
" />
<path d="M63595 29337
L63595 29562
" />
<path d="M63595 29450
L63201 29450
L63257 29487
L63295 29525
L63314 29562
" />
<text x="43250" y="37196.9"
textLength="2701.44" font-size="524.934" lengthAdjust="spacingAndGlyphs"
text-anchor="middle" opacity="0">DRV8825</text>
<path d="M42031 37178
L42031 36784
L42125 36784
L42181 36803
L42218 36840
L42237 36878
L42256 36953
L42256 37009
L42237 37084
L42218 37121
L42181 37159
L42125 37178
L42031 37178
" />
<path d="M42650 37178
L42518 36990
" />
<path d="M42425 37178
L42425 36784
L42575 36784
L42612 36803
L42631 36821
L42650 36859
L42650 36915
L42631 36953
L42612 36971
L42575 36990
L42425 36990
" />
<path d="M42762 36784
L42893 37178
L43025 36784
" />
<path d="M43212 36953
L43175 36934
L43156 36915
L43137 36878
L43137 36859
L43156 36821
L43175 36803
L43212 36784
L43287 36784
L43324 36803
L43343 36821
L43362 36859
L43362 36878
L43343 36915
L43324 36934
L43287 36953
L43212 36953
L43175 36971
L43156 36990
L43137 37028
L43137 37103
L43156 37140
L43175 37159
L43212 37178
L43287 37178
L43324 37159
L43343 37140
L43362 37103
L43362 37028
L43343 36990
L43324 36971
L43287 36953
" />
<path d="M43587 36953
L43549 36934
L43531 36915
L43512 36878
L43512 36859
L43531 36821
L43549 36803
L43587 36784
L43662 36784
L43699 36803
L43718 36821
L43737 36859
L43737 36878
L43718 36915
L43699 36934
L43662 36953
L43587 36953
L43549 36971
L43531 36990
L43512 37028
L43512 37103
L43531 37140
L43549 37159
L43587 37178
L43662 37178
L43699 37159
L43718 37140
L43737 37103
L43737 37028
L43718 36990
L43699 36971
L43662 36953
" />
<path d="M43887 36821
L43906 36803
L43943 36784
L44037 36784
L44074 36803
L44093 36821
L44112 36859
L44112 36896
L44093 36953
L43868 37178
L44112 37178
" />
<path d="M44468 36784
L44281 36784
L44262 36971
L44281 36953
L44318 36934
L44412 36934
L44449 36953
L44468 36971
L44487 37009
L44487 37103
L44468 37140
L44449 37159
L44412 37178
L44318 37178
L44281 37159
L44262 37140
" />
<g transform="rotate(-90 71807.1 36876)">
<text x="71807.1" y="37072.8"
textLength="2551.46" font-size="524.934" lengthAdjust="spacingAndGlyphs"
text-anchor="middle" opacity="0">Chrg3S1</text>
</g>
<path d="M71947 37794
L71966 37813
L71985 37869
L71985 37907
L71966 37963
L71928 38000
L71891 38019
L71816 38038
L71760 38038
L71685 38019
L71647 38000
L71610 37963
L71591 37907
L71591 37869
L71610 37813
L71628 37794
" />
<path d="M71985 37625
L71591 37625
" />
<path d="M71985 37457
L71778 37457
L71741 37475
L71722 37513
L71722 37569
L71741 37607
L71760 37625
" />
<path d="M71985 37269
L71722 37269
" />
<path d="M71797 37269
L71760 37250
L71741 37232
L71722 37194
L71722 37157
" />
<path d="M71722 36857
L72041 36857
L72078 36875
L72097 36894
L72116 36932
L72116 36988
L72097 37025
" />
<path d="M71966 36857
L71985 36894
L71985 36969
L71966 37007
L71947 37025
L71910 37044
L71797 37044
L71760 37025
L71741 37007
L71722 36969
L71722 36894
L71741 36857
" />
<path d="M71591 36707
L71591 36463
L71741 36594
L71741 36538
L71760 36501
L71778 36482
L71816 36463
L71910 36463
L71947 36482
L71966 36501
L71985 36538
L71985 36651
L71966 36688
L71947 36707
" />
<path d="M71966 36313
L71985 36257
L71985 36163
L71966 36126
L71947 36107
L71910 36088
L71872 36088
L71835 36107
L71816 36126
L71797 36163
L71778 36238
L71760 36276
L71741 36294
L71703 36313
L71666 36313
L71628 36294
L71610 36276
L71591 36238
L71591 36144
L71610 36088
" />
<path d="M71985 35713
L71985 35938
" />
<path d="M71985 35826
L71591 35826
L71647 35863
L71685 35901
L71703 35938
" />
<g transform="rotate(-90 74824.8 30484.3)">
<text x="74824.8" y="30681.1"
textLength="2120.27" font-size="524.934" lengthAdjust="spacingAndGlyphs"
text-anchor="middle" opacity="0">chrg12</text>
</g>
<path d="M74984 31243
L75002 31281
L75002 31356
L74984 31393
L74965 31412
L74927 31431
L74815 31431
L74777 31412
L74759 31393
L74740 31356
L74740 31281
L74759 31243
" />
<path d="M75002 31074
L74609 31074
" />
<path d="M75002 30906
L74796 30906
L74759 30924
L74740 30962
L74740 31018
L74759 31056
L74777 31074
" />
<path d="M75002 30718
L74740 30718
" />
<path d="M74815 30718
L74777 30699
L74759 30681
L74740 30643
L74740 30606
" />
<path d="M74740 30306
L75059 30306
L75096 30324
L75115 30343
L75134 30381
L75134 30437
L75115 30474
" />
<path d="M74984 30306
L75002 30343
L75002 30418
L74984 30456
L74965 30474
L74927 30493
L74815 30493
L74777 30474
L74759 30456
L74740 30418
L74740 30343
L74759 30306
" />
<path d="M75002 29912
L75002 30137
" />
<path d="M75002 30024
L74609 30024
L74665 30062
L74702 30099
L74721 30137
" />
<path d="M74646 29762
L74627 29743
L74609 29706
L74609 29612
L74627 29574
L74646 29556
L74684 29537
L74721 29537
L74777 29556
L75002 29781
L75002 29537
" />
<g transform="rotate(-90 73250 27925.2)">
<text x="73250" y="28220.5"
textLength="807.93" font-size="787.402" lengthAdjust="spacingAndGlyphs"
text-anchor="middle" opacity="0">-</text>
</g>
<path d="M73292 28150
L73292 27700
" />
<g transform="rotate(-90 73250 33043.3)">
<text x="73250" y="33338.6"
textLength="807.93" font-size="787.402" lengthAdjust="spacingAndGlyphs"
text-anchor="middle" opacity="0">+</text>
</g>
<path d="M73292 33268
L73292 32818
" />
<path d="M73517 33043
L73067 33043
" />
<text x="41757.9" y="33923.2"
textLength="845.426" font-size="524.934" lengthAdjust="spacingAndGlyphs"
text-anchor="middle" opacity="0">C1</text>
<path d="M41692 33866
L41673 33885
L41617 33904
L41579 33904
L41523 33885
L41486 33848
L41467 33810
L41448 33735
L41448 33679
L41467 33604
L41486 33567
L41523 33529
L41579 33510
L41617 33510
L41673 33529
L41692 33548
" />
<path d="M42067 33904
L41842 33904
" />
<path d="M41954 33904
L41954 33510
L41917 33567
L41879 33604
L41842 33623
" />
<g transform="rotate(-90 69872 36750)">
<text x="69872" y="36946.9"
textLength="1820.3" font-size="524.934" lengthAdjust="spacingAndGlyphs"
text-anchor="middle" opacity="0">Bt3S1</text>
</g>
<path d="M69843 37396
L69862 37340
L69881 37321
L69918 37303
L69975 37303
L70012 37321
L70031 37340
L70050 37378
L70050 37528
L69656 37528
L69656 37396
L69675 37359
L69693 37340
L69731 37321
L69768 37321
L69806 37340
L69825 37359
L69843 37396
L69843 37528
" />
<path d="M69787 37190
L69787 37040
" />
<path d="M69656 37134
L69993 37134
L70031 37115
L70050 37078
L70050 37040
" />
<path d="M69656 36946
L69656 36703
L69806 36834
L69806 36778
L69825 36740
L69843 36721
L69881 36703
L69975 36703
L70012 36721
L70031 36740
L70050 36778
L70050 36890
L70031 36928
L70012 36946
" />
<path d="M70031 36553
L70050 36496
L70050 36403
L70031 36365
L70012 36346
L69975 36328
L69937 36328
L69900 36346
L69881 36365
L69862 36403
L69843 36478
L69825 36515
L69806 36534
L69768 36553
L69731 36553
L69693 36534
L69675 36515
L69656 36478
L69656 36384
L69675 36328
" />
<path d="M70050 35953
L70050 36178
" />
<path d="M70050 36065
L69656 36065
L69712 36103
L69750 36140
L69768 36178
" />
<g transform="rotate(-90 69824.8 30484.3)">
<text x="69824.8" y="30681.1"
textLength="2157.76" font-size="524.934" lengthAdjust="spacingAndGlyphs"
text-anchor="middle" opacity="0">Bt12V1</text>
</g>
<path d="M69796 31299
L69815 31243
L69834 31224
L69871 31206
L69927 31206
L69965 31224
L69984 31243
L70002 31281
L70002 31431
L69609 31431
L69609 31299
L69627 31262
L69646 31243
L69684 31224
L69721 31224
L69759 31243
L69777 31262
L69796 31299
L69796 31431
" />
<path d="M69740 31093
L69740 30943
" />
<path d="M69609 31037
L69946 31037
L69984 31018
L70002 30981
L70002 30943
" />
<path d="M70002 30606
L70002 30831
" />
<path d="M70002 30718
L69609 30718
L69665 30756
L69702 30793
L69721 30831
" />
<path d="M69646 30456
L69627 30437
L69609 30399
L69609 30306
L69627 30268
L69646 30249
L69684 30231
L69721 30231
L69777 30249
L70002 30474
L70002 30231
" />
<path d="M69609 30118
L70002 29987
L69609 29856
" />
<path d="M70002 29518
L70002 29743
" />
<path d="M70002 29631
L69609 29631
L69665 29668
L69702 29706
L69721 29743
" />
<g transform="rotate(-90 68250 27925.2)">
<text x="68250" y="28220.5"
textLength="807.93" font-size="787.402" lengthAdjust="spacingAndGlyphs"
text-anchor="middle" opacity="0">-</text>
</g>
<path d="M68292 28150
L68292 27700
" />
<g transform="rotate(-90 68250 33043.3)">
<text x="68250" y="33338.6"
textLength="807.93" font-size="787.402" lengthAdjust="spacingAndGlyphs"
text-anchor="middle" opacity="0">+</text>
</g>
<path d="M68292 33268
L68292 32818
" />
<path d="M68517 33043
L68067 33043
" />
<g >
</g>
</g>
<g style="fill:#000000; fill-opacity:0.0; 
stroke:#000000; stroke-width:59.0551; stroke-opacity:1; 
stroke-linecap:round; stroke-linejoin:round;">
</g>
<g style="fill:#C2C200; fill-opacity:0.0; 
stroke:#C2C200; stroke-width:59.0551; stroke-opacity:1; 
stroke-linecap:round; stroke-linejoin:round;">
</g>
<g style="fill:#C2C200; fill-opacity:0.0; 
stroke:#C2C200; stroke-width:19.685; stroke-opacity:1; 
stroke-linecap:round; stroke-linejoin:round;">
<path d="M64000 42000
L37000 42000
" />
<path d="M64000 39750
L64000 42000
" />
<path d="M75250 39750
L64000 39750
" />
<path d="M75250 26250
L75250 39750
" />
<path d="M30000 26250
L75250 26250
" />
<path d="M30000 26750
L30000 26250
" />
<path d="M30000 39000
L30000 26750
" />
<path d="M37000 39000
L30000 39000
" />
<path d="M37000 39250
L37000 39000
" />
<path d="M37000 40000
L37000 39250
" />
<path d="M37000 42000
L37000 40000
" />
<g >
</g>
<g >
</g>
<g >
</g>
<g >
</g>
<g >
</g>
<g >
</g>
<g >
</g>
<g >
</g>
<g >
</g>
<g >
</g>
<g >
</g>
<g >
</g>
<g >
</g>
</g> 
</svg>
