<?xml version="1.0" standalone="no"?>
 <!DOCTYPE svg PUBLIC "-//W3C//DTD SVG 1.1//EN" 
 "http://www.w3.org/Graphics/SVG/1.1/DTD/svg11.dtd"> 
<svg
  xmlns:svg="http://www.w3.org/2000/svg"
  xmlns="http://www.w3.org/2000/svg"
  xmlns:xlink="http://www.w3.org/1999/xlink"
  version="1.1"
  width="29.700220cm" height="21.000720cm" viewBox="0 0 116930 82680">
<title>SVG Picture created as MainBoardTurningTable-F_Fab.svg date 2022/12/18 21:23:29 </title>
  <desc>Picture generated by PCBNEW </desc>
<g style="fill:#000000; fill-opacity:1;stroke:#000000; stroke-opacity:1;
stroke-linecap:round; stroke-linejoin:round;"
 transform="translate(0 0) scale(1 1)">
</g>
<g style="fill:#000000; fill-opacity:0.0; 
stroke:#000000; stroke-width:-0.000393701; stroke-opacity:1; 
stroke-linecap:round; stroke-linejoin:round;">
</g>
<g style="fill:#000000; fill-opacity:0.0; 
stroke:#000000; stroke-width:39.3701; stroke-opacity:1; 
stroke-linecap:round; stroke-linejoin:round;">
</g>
<g style="fill:#000000; fill-opacity:0.0; 
stroke:#000000; stroke-width:59.0551; stroke-opacity:1; 
stroke-linecap:round; stroke-linejoin:round;">
<rect x="69685.9" y="65357.2" width="42519.7" height="12598.4" rx="0" />
</g>
<g style="fill:#000000; fill-opacity:0.0; 
stroke:#000000; stroke-width:39.3701; stroke-opacity:1; 
stroke-linecap:round; stroke-linejoin:round;">
</g>
<g style="fill:#000000; fill-opacity:0.0; 
stroke:#000000; stroke-width:59.0551; stroke-opacity:1; 
stroke-linecap:round; stroke-linejoin:round;">
<rect x="3937.01" y="3937.01" width="109056" height="74806" rx="0" />
</g>
<g style="fill:#000000; fill-opacity:0.0; 
stroke:#000000; stroke-width:39.3701; stroke-opacity:1; 
stroke-linecap:round; stroke-linejoin:round;">
</g>
<g style="fill:#000000; fill-opacity:0.0; 
stroke:#000000; stroke-width:59.0551; stroke-opacity:1; 
stroke-linecap:round; stroke-linejoin:round;">
<rect x="4724.41" y="4724.41" width="107481" height="73231.2" rx="0" />
</g>
<g style="fill:#000000; fill-opacity:0.0; 
stroke:#000000; stroke-width:39.3701; stroke-opacity:1; 
stroke-linecap:round; stroke-linejoin:round;">
</g>
<g style="fill:#000000; fill-opacity:0.0; 
stroke:#000000; stroke-width:59.0551; stroke-opacity:1; 
stroke-linecap:round; stroke-linejoin:round;">
<path d="M23622 4724
L23622 3937
" />
</g>
<g style="fill:#000000; fill-opacity:0.0; 
stroke:#000000; stroke-width:39.3701; stroke-opacity:1; 
stroke-linecap:round; stroke-linejoin:round;">
</g>
<g style="fill:#000000; fill-opacity:0.0; 
stroke:#000000; stroke-width:59.0551; stroke-opacity:1; 
stroke-linecap:round; stroke-linejoin:round;">
<path d="M43307 4724
L43307 3937
" />
</g>
<g style="fill:#000000; fill-opacity:0.0; 
stroke:#000000; stroke-width:39.3701; stroke-opacity:1; 
stroke-linecap:round; stroke-linejoin:round;">
</g>
<g style="fill:#000000; fill-opacity:0.0; 
stroke:#000000; stroke-width:59.0551; stroke-opacity:1; 
stroke-linecap:round; stroke-linejoin:round;">
<path d="M62992 4724
L62992 3937
" />
</g>
<g style="fill:#000000; fill-opacity:0.0; 
stroke:#000000; stroke-width:39.3701; stroke-opacity:1; 
stroke-linecap:round; stroke-linejoin:round;">
</g>
<g style="fill:#000000; fill-opacity:0.0; 
stroke:#000000; stroke-width:59.0551; stroke-opacity:1; 
stroke-linecap:round; stroke-linejoin:round;">
<path d="M82677 4724
L82677 3937
" />
</g>
<g style="fill:#000000; fill-opacity:0.0; 
stroke:#000000; stroke-width:39.3701; stroke-opacity:1; 
stroke-linecap:round; stroke-linejoin:round;">
</g>
<g style="fill:#000000; fill-opacity:0.0; 
stroke:#000000; stroke-width:59.0551; stroke-opacity:1; 
stroke-linecap:round; stroke-linejoin:round;">
<path d="M102362 4724
L102362 3937
" />
</g>
<g style="fill:#000000; fill-opacity:0.0; 
stroke:#000000; stroke-width:39.3701; stroke-opacity:1; 
stroke-linecap:round; stroke-linejoin:round;">
</g>
<g style="fill:#000000; fill-opacity:0.0; 
stroke:#000000; stroke-width:59.0551; stroke-opacity:1; 
stroke-linecap:round; stroke-linejoin:round;">
<text x="13779.5" y="4586.61"
textLength="564.211" font-size="682.415" lengthAdjust="spacingAndGlyphs"
text-anchor="start" opacity="0">1</text>
<path d="M14199 4562
L13906 4562
" />
<path d="M14052 4562
L14052 4050
L14004 4123
L13955 4172
L13906 4196
" />
</g>
<g style="fill:#000000; fill-opacity:0.0; 
stroke:#000000; stroke-width:39.3701; stroke-opacity:1; 
stroke-linecap:round; stroke-linejoin:round;">
</g>
<g style="fill:#000000; fill-opacity:0.0; 
stroke:#000000; stroke-width:59.0551; stroke-opacity:1; 
stroke-linecap:round; stroke-linejoin:round;">
<text x="33464.6" y="4586.61"
textLength="546.494" font-size="682.415" lengthAdjust="spacingAndGlyphs"
text-anchor="start" opacity="0">2</text>
<path d="M33591 4099
L33615 4074
L33664 4050
L33786 4050
L33835 4074
L33859 4099
L33884 4147
L33884 4196
L33859 4269
L33567 4562
L33884 4562
" />
</g>
<g style="fill:#000000; fill-opacity:0.0; 
stroke:#000000; stroke-width:39.3701; stroke-opacity:1; 
stroke-linecap:round; stroke-linejoin:round;">
</g>
<g style="fill:#000000; fill-opacity:0.0; 
stroke:#000000; stroke-width:59.0551; stroke-opacity:1; 
stroke-linecap:round; stroke-linejoin:round;">
<text x="53149.6" y="4586.61"
textLength="546.494" font-size="682.415" lengthAdjust="spacingAndGlyphs"
text-anchor="start" opacity="0">3</text>
<path d="M53252 4050
L53569 4050
L53398 4245
L53471 4245
L53520 4269
L53544 4294
L53569 4342
L53569 4464
L53544 4513
L53520 4537
L53471 4562
L53325 4562
L53276 4537
L53252 4513
" />
</g>
<g style="fill:#000000; fill-opacity:0.0; 
stroke:#000000; stroke-width:39.3701; stroke-opacity:1; 
stroke-linecap:round; stroke-linejoin:round;">
</g>
<g style="fill:#000000; fill-opacity:0.0; 
stroke:#000000; stroke-width:59.0551; stroke-opacity:1; 
stroke-linecap:round; stroke-linejoin:round;">
<text x="72834.6" y="4586.61"
textLength="546.494" font-size="682.415" lengthAdjust="spacingAndGlyphs"
text-anchor="start" opacity="0">4</text>
<path d="M73205 4221
L73205 4562
" />
<path d="M73083 4026
L72961 4391
L73278 4391
" />
</g>
<g style="fill:#000000; fill-opacity:0.0; 
stroke:#000000; stroke-width:39.3701; stroke-opacity:1; 
stroke-linecap:round; stroke-linejoin:round;">
</g>
<g style="fill:#000000; fill-opacity:0.0; 
stroke:#000000; stroke-width:59.0551; stroke-opacity:1; 
stroke-linecap:round; stroke-linejoin:round;">
<text x="92519.7" y="4586.61"
textLength="546.494" font-size="682.415" lengthAdjust="spacingAndGlyphs"
text-anchor="start" opacity="0">5</text>
<path d="M92914 4050
L92671 4050
L92646 4294
L92671 4269
L92719 4245
L92841 4245
L92890 4269
L92914 4294
L92939 4342
L92939 4464
L92914 4513
L92890 4537
L92841 4562
L92719 4562
L92671 4537
L92646 4513
" />
</g>
<g style="fill:#000000; fill-opacity:0.0; 
stroke:#000000; stroke-width:39.3701; stroke-opacity:1; 
stroke-linecap:round; stroke-linejoin:round;">
</g>
<g style="fill:#000000; fill-opacity:0.0; 
stroke:#000000; stroke-width:59.0551; stroke-opacity:1; 
stroke-linecap:round; stroke-linejoin:round;">
<text x="112205" y="4586.61"
textLength="546.494" font-size="682.415" lengthAdjust="spacingAndGlyphs"
text-anchor="start" opacity="0">6</text>
<path d="M112575 4050
L112477 4050
L112429 4074
L112404 4099
L112356 4172
L112331 4269
L112331 4464
L112356 4513
L112380 4537
L112429 4562
L112526 4562
L112575 4537
L112599 4513
L112624 4464
L112624 4342
L112599 4294
L112575 4269
L112526 4245
L112429 4245
L112380 4269
L112356 4294
L112331 4342
" />
</g>
<g style="fill:#000000; fill-opacity:0.0; 
stroke:#000000; stroke-width:39.3701; stroke-opacity:1; 
stroke-linecap:round; stroke-linejoin:round;">
</g>
<g style="fill:#000000; fill-opacity:0.0; 
stroke:#000000; stroke-width:59.0551; stroke-opacity:1; 
stroke-linecap:round; stroke-linejoin:round;">
<path d="M23622 77955
L23622 78742
" />
</g>
<g style="fill:#000000; fill-opacity:0.0; 
stroke:#000000; stroke-width:39.3701; stroke-opacity:1; 
stroke-linecap:round; stroke-linejoin:round;">
</g>
<g style="fill:#000000; fill-opacity:0.0; 
stroke:#000000; stroke-width:59.0551; stroke-opacity:1; 
stroke-linecap:round; stroke-linejoin:round;">
<path d="M43307 77955
L43307 78742
" />
</g>
<g style="fill:#000000; fill-opacity:0.0; 
stroke:#000000; stroke-width:39.3701; stroke-opacity:1; 
stroke-linecap:round; stroke-linejoin:round;">
</g>
<g style="fill:#000000; fill-opacity:0.0; 
stroke:#000000; stroke-width:59.0551; stroke-opacity:1; 
stroke-linecap:round; stroke-linejoin:round;">
<path d="M62992 77955
L62992 78742
" />
</g>
<g style="fill:#000000; fill-opacity:0.0; 
stroke:#000000; stroke-width:39.3701; stroke-opacity:1; 
stroke-linecap:round; stroke-linejoin:round;">
</g>
<g style="fill:#000000; fill-opacity:0.0; 
stroke:#000000; stroke-width:59.0551; stroke-opacity:1; 
stroke-linecap:round; stroke-linejoin:round;">
<path d="M82677 77955
L82677 78742
" />
</g>
<g style="fill:#000000; fill-opacity:0.0; 
stroke:#000000; stroke-width:39.3701; stroke-opacity:1; 
stroke-linecap:round; stroke-linejoin:round;">
</g>
<g style="fill:#000000; fill-opacity:0.0; 
stroke:#000000; stroke-width:59.0551; stroke-opacity:1; 
stroke-linecap:round; stroke-linejoin:round;">
<path d="M102362 77955
L102362 78742
" />
</g>
<g style="fill:#000000; fill-opacity:0.0; 
stroke:#000000; stroke-width:39.3701; stroke-opacity:1; 
stroke-linecap:round; stroke-linejoin:round;">
</g>
<g style="fill:#000000; fill-opacity:0.0; 
stroke:#000000; stroke-width:59.0551; stroke-opacity:1; 
stroke-linecap:round; stroke-linejoin:round;">
<text x="13779.5" y="78605.2"
textLength="546.494" font-size="682.415" lengthAdjust="spacingAndGlyphs"
text-anchor="start" opacity="0">1</text>
<path d="M14199 78580
L13906 78580
" />
<path d="M14052 78580
L14052 78069
L14004 78142
L13955 78190
L13906 78215
" />
</g>
<g style="fill:#000000; fill-opacity:0.0; 
stroke:#000000; stroke-width:39.3701; stroke-opacity:1; 
stroke-linecap:round; stroke-linejoin:round;">
</g>
<g style="fill:#000000; fill-opacity:0.0; 
stroke:#000000; stroke-width:59.0551; stroke-opacity:1; 
stroke-linecap:round; stroke-linejoin:round;">
<text x="33464.6" y="78605.2"
textLength="546.494" font-size="682.415" lengthAdjust="spacingAndGlyphs"
text-anchor="start" opacity="0">2</text>
<path d="M33591 78117
L33615 78093
L33664 78069
L33786 78069
L33835 78093
L33859 78117
L33884 78166
L33884 78215
L33859 78288
L33567 78580
L33884 78580
" />
</g>
<g style="fill:#000000; fill-opacity:0.0; 
stroke:#000000; stroke-width:39.3701; stroke-opacity:1; 
stroke-linecap:round; stroke-linejoin:round;">
</g>
<g style="fill:#000000; fill-opacity:0.0; 
stroke:#000000; stroke-width:59.0551; stroke-opacity:1; 
stroke-linecap:round; stroke-linejoin:round;">
<text x="53149.6" y="78605.2"
textLength="546.494" font-size="682.415" lengthAdjust="spacingAndGlyphs"
text-anchor="start" opacity="0">3</text>
<path d="M53252 78069
L53569 78069
L53398 78263
L53471 78263
L53520 78288
L53544 78312
L53569 78361
L53569 78483
L53544 78532
L53520 78556
L53471 78580
L53325 78580
L53276 78556
L53252 78532
" />
</g>
<g style="fill:#000000; fill-opacity:0.0; 
stroke:#000000; stroke-width:39.3701; stroke-opacity:1; 
stroke-linecap:round; stroke-linejoin:round;">
</g>
<g style="fill:#000000; fill-opacity:0.0; 
stroke:#000000; stroke-width:59.0551; stroke-opacity:1; 
stroke-linecap:round; stroke-linejoin:round;">
<text x="72834.6" y="78605.2"
textLength="546.494" font-size="682.415" lengthAdjust="spacingAndGlyphs"
text-anchor="start" opacity="0">4</text>
<path d="M73205 78239
L73205 78580
" />
<path d="M73083 78044
L72961 78410
L73278 78410
" />
</g>
<g style="fill:#000000; fill-opacity:0.0; 
stroke:#000000; stroke-width:39.3701; stroke-opacity:1; 
stroke-linecap:round; stroke-linejoin:round;">
</g>
<g style="fill:#000000; fill-opacity:0.0; 
stroke:#000000; stroke-width:59.0551; stroke-opacity:1; 
stroke-linecap:round; stroke-linejoin:round;">
<text x="92519.7" y="78605.2"
textLength="546.494" font-size="682.415" lengthAdjust="spacingAndGlyphs"
text-anchor="start" opacity="0">5</text>
<path d="M92914 78069
L92671 78069
L92646 78312
L92671 78288
L92719 78263
L92841 78263
L92890 78288
L92914 78312
L92939 78361
L92939 78483
L92914 78532
L92890 78556
L92841 78580
L92719 78580
L92671 78556
L92646 78532
" />
</g>
<g style="fill:#000000; fill-opacity:0.0; 
stroke:#000000; stroke-width:39.3701; stroke-opacity:1; 
stroke-linecap:round; stroke-linejoin:round;">
</g>
<g style="fill:#000000; fill-opacity:0.0; 
stroke:#000000; stroke-width:59.0551; stroke-opacity:1; 
stroke-linecap:round; stroke-linejoin:round;">
<text x="112205" y="78605.2"
textLength="546.494" font-size="682.415" lengthAdjust="spacingAndGlyphs"
text-anchor="start" opacity="0">6</text>
<path d="M112575 78069
L112477 78069
L112429 78093
L112404 78117
L112356 78190
L112331 78288
L112331 78483
L112356 78532
L112380 78556
L112429 78580
L112526 78580
L112575 78556
L112599 78532
L112624 78483
L112624 78361
L112599 78312
L112575 78288
L112526 78263
L112429 78263
L112380 78288
L112356 78312
L112331 78361
" />
</g>
<g style="fill:#000000; fill-opacity:0.0; 
stroke:#000000; stroke-width:39.3701; stroke-opacity:1; 
stroke-linecap:round; stroke-linejoin:round;">
</g>
<g style="fill:#000000; fill-opacity:0.0; 
stroke:#000000; stroke-width:59.0551; stroke-opacity:1; 
stroke-linecap:round; stroke-linejoin:round;">
<path d="M3937 23622
L4724 23622
" />
</g>
<g style="fill:#000000; fill-opacity:0.0; 
stroke:#000000; stroke-width:39.3701; stroke-opacity:1; 
stroke-linecap:round; stroke-linejoin:round;">
</g>
<g style="fill:#000000; fill-opacity:0.0; 
stroke:#000000; stroke-width:59.0551; stroke-opacity:1; 
stroke-linecap:round; stroke-linejoin:round;">
<path d="M3937 43307
L4724 43307
" />
</g>
<g style="fill:#000000; fill-opacity:0.0; 
stroke:#000000; stroke-width:39.3701; stroke-opacity:1; 
stroke-linecap:round; stroke-linejoin:round;">
</g>
<g style="fill:#000000; fill-opacity:0.0; 
stroke:#000000; stroke-width:59.0551; stroke-opacity:1; 
stroke-linecap:round; stroke-linejoin:round;">
<path d="M3937 62992
L4724 62992
" />
</g>
<g style="fill:#000000; fill-opacity:0.0; 
stroke:#000000; stroke-width:39.3701; stroke-opacity:1; 
stroke-linecap:round; stroke-linejoin:round;">
</g>
<g style="fill:#000000; fill-opacity:0.0; 
stroke:#000000; stroke-width:59.0551; stroke-opacity:1; 
stroke-linecap:round; stroke-linejoin:round;">
<text x="4330.71" y="14035.4"
textLength="497.75" font-size="682.415" lengthAdjust="spacingAndGlyphs"
text-anchor="middle" opacity="0">A</text>
<path d="M4208 13864
L4452 13864
" />
<path d="M4160 14011
L4330 13499
L4501 14011
" />
</g>
<g style="fill:#000000; fill-opacity:0.0; 
stroke:#000000; stroke-width:39.3701; stroke-opacity:1; 
stroke-linecap:round; stroke-linejoin:round;">
</g>
<g style="fill:#000000; fill-opacity:0.0; 
stroke:#000000; stroke-width:59.0551; stroke-opacity:1; 
stroke-linecap:round; stroke-linejoin:round;">
<text x="4330.71" y="33720.5"
textLength="570.866" font-size="682.415" lengthAdjust="spacingAndGlyphs"
text-anchor="middle" opacity="0">B</text>
<path d="M4367 33428
L4440 33452
L4464 33476
L4489 33525
L4489 33598
L4464 33647
L4440 33671
L4391 33696
L4196 33696
L4196 33184
L4367 33184
L4416 33208
L4440 33233
L4464 33281
L4464 33330
L4440 33379
L4416 33403
L4367 33428
L4196 33428
" />
</g>
<g style="fill:#000000; fill-opacity:0.0; 
stroke:#000000; stroke-width:39.3701; stroke-opacity:1; 
stroke-linecap:round; stroke-linejoin:round;">
</g>
<g style="fill:#000000; fill-opacity:0.0; 
stroke:#000000; stroke-width:59.0551; stroke-opacity:1; 
stroke-linecap:round; stroke-linejoin:round;">
<text x="4330.71" y="53405.5"
textLength="570.866" font-size="682.415" lengthAdjust="spacingAndGlyphs"
text-anchor="middle" opacity="0">C</text>
<path d="M4489 53332
L4464 53356
L4391 53381
L4342 53381
L4269 53356
L4221 53308
L4196 53259
L4172 53161
L4172 53088
L4196 52991
L4221 52942
L4269 52893
L4342 52869
L4391 52869
L4464 52893
L4489 52918
" />
</g>
<g style="fill:#000000; fill-opacity:0.0; 
stroke:#000000; stroke-width:39.3701; stroke-opacity:1; 
stroke-linecap:round; stroke-linejoin:round;">
</g>
<g style="fill:#000000; fill-opacity:0.0; 
stroke:#000000; stroke-width:59.0551; stroke-opacity:1; 
stroke-linecap:round; stroke-linejoin:round;">
<text x="4330.71" y="73090.6"
textLength="570.866" font-size="682.415" lengthAdjust="spacingAndGlyphs"
text-anchor="middle" opacity="0">D</text>
<path d="M4196 73066
L4196 72554
L4318 72554
L4391 72578
L4440 72627
L4464 72676
L4489 72773
L4489 72846
L4464 72944
L4440 72993
L4391 73041
L4318 73066
L4196 73066
" />
</g>
<g style="fill:#000000; fill-opacity:0.0; 
stroke:#000000; stroke-width:39.3701; stroke-opacity:1; 
stroke-linecap:round; stroke-linejoin:round;">
</g>
<g style="fill:#000000; fill-opacity:0.0; 
stroke:#000000; stroke-width:59.0551; stroke-opacity:1; 
stroke-linecap:round; stroke-linejoin:round;">
<path d="M112992 23622
L112205 23622
" />
</g>
<g style="fill:#000000; fill-opacity:0.0; 
stroke:#000000; stroke-width:39.3701; stroke-opacity:1; 
stroke-linecap:round; stroke-linejoin:round;">
</g>
<g style="fill:#000000; fill-opacity:0.0; 
stroke:#000000; stroke-width:59.0551; stroke-opacity:1; 
stroke-linecap:round; stroke-linejoin:round;">
<path d="M112992 43307
L112205 43307
" />
</g>
<g style="fill:#000000; fill-opacity:0.0; 
stroke:#000000; stroke-width:39.3701; stroke-opacity:1; 
stroke-linecap:round; stroke-linejoin:round;">
</g>
<g style="fill:#000000; fill-opacity:0.0; 
stroke:#000000; stroke-width:59.0551; stroke-opacity:1; 
stroke-linecap:round; stroke-linejoin:round;">
<path d="M112992 62992
L112205 62992
" />
</g>
<g style="fill:#000000; fill-opacity:0.0; 
stroke:#000000; stroke-width:39.3701; stroke-opacity:1; 
stroke-linecap:round; stroke-linejoin:round;">
</g>
<g style="fill:#000000; fill-opacity:0.0; 
stroke:#000000; stroke-width:59.0551; stroke-opacity:1; 
stroke-linecap:round; stroke-linejoin:round;">
<text x="112599" y="14035.4"
textLength="497.75" font-size="682.415" lengthAdjust="spacingAndGlyphs"
text-anchor="middle" opacity="0">A</text>
<path d="M112477 13864
L112721 13864
" />
<path d="M112428 14011
L112599 13499
L112769 14011
" />
</g>
<g style="fill:#000000; fill-opacity:0.0; 
stroke:#000000; stroke-width:39.3701; stroke-opacity:1; 
stroke-linecap:round; stroke-linejoin:round;">
</g>
<g style="fill:#000000; fill-opacity:0.0; 
stroke:#000000; stroke-width:59.0551; stroke-opacity:1; 
stroke-linecap:round; stroke-linejoin:round;">
<text x="112599" y="33720.5"
textLength="570.866" font-size="682.415" lengthAdjust="spacingAndGlyphs"
text-anchor="middle" opacity="0">B</text>
<path d="M112635 33428
L112708 33452
L112733 33476
L112757 33525
L112757 33598
L112733 33647
L112708 33671
L112660 33696
L112465 33696
L112465 33184
L112635 33184
L112684 33208
L112708 33233
L112733 33281
L112733 33330
L112708 33379
L112684 33403
L112635 33428
L112465 33428
" />
</g>
<g style="fill:#000000; fill-opacity:0.0; 
stroke:#000000; stroke-width:39.3701; stroke-opacity:1; 
stroke-linecap:round; stroke-linejoin:round;">
</g>
<g style="fill:#000000; fill-opacity:0.0; 
stroke:#000000; stroke-width:59.0551; stroke-opacity:1; 
stroke-linecap:round; stroke-linejoin:round;">
<text x="112599" y="53405.5"
textLength="570.866" font-size="682.415" lengthAdjust="spacingAndGlyphs"
text-anchor="middle" opacity="0">C</text>
<path d="M112757 53332
L112733 53356
L112660 53381
L112611 53381
L112538 53356
L112489 53308
L112465 53259
L112440 53161
L112440 53088
L112465 52991
L112489 52942
L112538 52893
L112611 52869
L112660 52869
L112733 52893
L112757 52918
" />
</g>
<g style="fill:#000000; fill-opacity:0.0; 
stroke:#000000; stroke-width:39.3701; stroke-opacity:1; 
stroke-linecap:round; stroke-linejoin:round;">
</g>
<g style="fill:#000000; fill-opacity:0.0; 
stroke:#000000; stroke-width:59.0551; stroke-opacity:1; 
stroke-linecap:round; stroke-linejoin:round;">
<text x="112599" y="73090.6"
textLength="570.866" font-size="682.415" lengthAdjust="spacingAndGlyphs"
text-anchor="middle" opacity="0">D</text>
<path d="M112465 73066
L112465 72554
L112587 72554
L112660 72578
L112708 72627
L112733 72676
L112757 72773
L112757 72846
L112733 72944
L112708 72993
L112660 73041
L112587 73066
L112465 73066
" />
</g>
<g style="fill:#000000; fill-opacity:0.0; 
stroke:#000000; stroke-width:39.3701; stroke-opacity:1; 
stroke-linecap:round; stroke-linejoin:round;">
</g>
<g style="fill:#000000; fill-opacity:0.0; 
stroke:#000000; stroke-width:59.0551; stroke-opacity:1; 
stroke-linecap:round; stroke-linejoin:round;">
<text x="78741" y="76321.7"
textLength="2758.72" font-size="787.402" lengthAdjust="spacingAndGlyphs"
text-anchor="start" opacity="0">Date: </text>
<path d="M78911 76293
L78911 75703
L79051 75703
L79136 75731
L79192 75787
L79220 75843
L79248 75956
L79248 76040
L79220 76153
L79192 76209
L79136 76265
L79051 76293
L78911 76293
" />
<path d="M79754 76293
L79754 75984
L79726 75928
L79670 75899
L79557 75899
L79501 75928
" />
<path d="M79754 76265
L79698 76293
L79557 76293
L79501 76265
L79473 76209
L79473 76153
L79501 76096
L79557 76068
L79698 76068
L79754 76040
" />
<path d="M79951 75899
L80176 75899
" />
<path d="M80036 75703
L80036 76209
L80064 76265
L80120 76293
L80176 76293
" />
<path d="M80598 76265
L80542 76293
L80429 76293
L80373 76265
L80345 76209
L80345 75984
L80373 75928
L80429 75899
L80542 75899
L80598 75928
L80626 75984
L80626 76040
L80345 76096
" />
<path d="M80879 76237
L80907 76265
L80879 76293
L80851 76265
L80879 76237
L80879 76293
" />
<path d="M80879 75928
L80907 75956
L80879 75984
L80851 75956
L80879 75928
L80879 75984
" />
</g>
<g style="fill:#000000; fill-opacity:0.0; 
stroke:#000000; stroke-width:39.3701; stroke-opacity:1; 
stroke-linecap:round; stroke-linejoin:round;">
</g>
<g style="fill:#000000; fill-opacity:0.0; 
stroke:#000000; stroke-width:59.0551; stroke-opacity:1; 
stroke-linecap:round; stroke-linejoin:round;">
<path d="M69685 76577
L112205 76577
" />
</g>
<g style="fill:#000000; fill-opacity:0.0; 
stroke:#000000; stroke-width:39.3701; stroke-opacity:1; 
stroke-linecap:round; stroke-linejoin:round;">
</g>
<g style="fill:#000000; fill-opacity:0.0; 
stroke:#000000; stroke-width:59.0551; stroke-opacity:1; 
stroke-linecap:round; stroke-linejoin:round;">
<text x="70079.6" y="77424.1"
textLength="14091.7" font-size="787.402" lengthAdjust="spacingAndGlyphs"
text-anchor="start" opacity="0">KiCad E.D.A.  kicad (5.1.12)-1</text>
<path d="M70249 77395
L70249 76805
" />
<path d="M70587 77395
L70334 77058
" />
<path d="M70587 76805
L70249 77142
" />
<path d="M70840 77395
L70840 77002
" />
<path d="M70840 76805
L70812 76833
L70840 76861
L70868 76833
L70840 76805
L70840 76861
" />
<path d="M71458 77339
L71430 77367
L71346 77395
L71290 77395
L71205 77367
L71149 77311
L71121 77255
L71093 77142
L71093 77058
L71121 76946
L71149 76889
L71205 76833
L71290 76805
L71346 76805
L71430 76833
L71458 76861
" />
<path d="M71965 77395
L71965 77086
L71937 77030
L71880 77002
L71768 77002
L71712 77030
" />
<path d="M71965 77367
L71908 77395
L71768 77395
L71712 77367
L71683 77311
L71683 77255
L71712 77199
L71768 77171
L71908 77171
L71965 77142
" />
<path d="M72499 77395
L72499 76805
" />
<path d="M72499 77367
L72443 77395
L72330 77395
L72274 77367
L72246 77339
L72218 77283
L72218 77114
L72246 77058
L72274 77030
L72330 77002
L72443 77002
L72499 77030
" />
<path d="M73230 77086
L73427 77086
" />
<path d="M73511 77395
L73230 77395
L73230 76805
L73511 76805
" />
<path d="M73764 77339
L73793 77367
L73764 77395
L73736 77367
L73764 77339
L73764 77395
" />
<path d="M74046 77395
L74046 76805
L74186 76805
L74271 76833
L74327 76889
L74355 76946
L74383 77058
L74383 77142
L74355 77255
L74327 77311
L74271 77367
L74186 77395
L74046 77395
" />
<path d="M74636 77339
L74664 77367
L74636 77395
L74608 77367
L74636 77339
L74636 77395
" />
<path d="M74889 77227
L75171 77227
" />
<path d="M74833 77395
L75030 76805
L75227 77395
" />
<path d="M75424 77339
L75452 77367
L75424 77395
L75395 77367
L75424 77339
L75424 77395
" />
<path d="M76605 77395
L76605 76805
" />
<path d="M76661 77171
L76830 77395
" />
<path d="M76830 77002
L76605 77227
" />
<path d="M77083 77395
L77083 77002
" />
<path d="M77083 76805
L77055 76833
L77083 76861
L77111 76833
L77083 76805
L77083 76861
" />
<path d="M77617 77367
L77561 77395
L77448 77395
L77392 77367
L77364 77339
L77336 77283
L77336 77114
L77364 77058
L77392 77030
L77448 77002
L77561 77002
L77617 77030
" />
<path d="M78123 77395
L78123 77086
L78095 77030
L78039 77002
L77926 77002
L77870 77030
" />
<path d="M78123 77367
L78067 77395
L77926 77395
L77870 77367
L77842 77311
L77842 77255
L77870 77199
L77926 77171
L78067 77171
L78123 77142
" />
<path d="M78658 77395
L78658 76805
" />
<path d="M78658 77367
L78601 77395
L78489 77395
L78433 77367
L78404 77339
L78376 77283
L78376 77114
L78404 77058
L78433 77030
L78489 77002
L78601 77002
L78658 77030
" />
<path d="M79557 77620
L79529 77592
L79473 77508
L79445 77452
L79417 77367
L79389 77227
L79389 77114
L79417 76974
L79445 76889
L79473 76833
L79529 76749
L79557 76721
" />
<path d="M80064 76805
L79782 76805
L79754 77086
L79782 77058
L79839 77030
L79979 77030
L80036 77058
L80064 77086
L80092 77142
L80092 77283
L80064 77339
L80036 77367
L79979 77395
L79839 77395
L79782 77367
L79754 77339
" />
<path d="M80345 77339
L80373 77367
L80345 77395
L80317 77367
L80345 77339
L80345 77395
" />
<path d="M80935 77395
L80598 77395
" />
<path d="M80767 77395
L80767 76805
L80710 76889
L80654 76946
L80598 76974
" />
<path d="M81188 77339
L81217 77367
L81188 77395
L81160 77367
L81188 77339
L81188 77395
" />
<path d="M81779 77395
L81442 77395
" />
<path d="M81610 77395
L81610 76805
L81554 76889
L81498 76946
L81442 76974
" />
<path d="M82004 76861
L82032 76833
L82088 76805
L82229 76805
L82285 76833
L82313 76861
L82341 76917
L82341 76974
L82313 77058
L81976 77395
L82341 77395
" />
<path d="M82538 77620
L82566 77592
L82623 77508
L82651 77452
L82679 77367
L82707 77227
L82707 77114
L82679 76974
L82651 76889
L82623 76833
L82566 76749
L82538 76721
" />
<path d="M82988 77171
L83438 77171
" />
<path d="M84029 77395
L83691 77395
" />
<path d="M83860 77395
L83860 76805
L83804 76889
L83748 76946
L83691 76974
" />
</g>
<g style="fill:#000000; fill-opacity:0.0; 
stroke:#000000; stroke-width:39.3701; stroke-opacity:1; 
stroke-linecap:round; stroke-linejoin:round;">
</g>
<g style="fill:#000000; fill-opacity:0.0; 
stroke:#000000; stroke-width:59.0551; stroke-opacity:1; 
stroke-linecap:round; stroke-linejoin:round;">
<path d="M69685 75396
L112205 75396
" />
</g>
<g style="fill:#000000; fill-opacity:0.0; 
stroke:#000000; stroke-width:39.3701; stroke-opacity:1; 
stroke-linecap:round; stroke-linejoin:round;">
</g>
<g style="fill:#000000; fill-opacity:0.0; 
stroke:#000000; stroke-width:118.11; stroke-opacity:1; 
stroke-linecap:round; stroke-linejoin:round;">
<text x="103544" y="76321.7"
textLength="2336.9" font-size="787.402" lengthAdjust="spacingAndGlyphs"
text-anchor="start" opacity="0">Rev: </text>
<path d="M104099 76293
L103902 76012
" />
<path d="M103761 76293
L103761 75703
L103986 75703
L104042 75731
L104070 75759
L104099 75815
L104099 75899
L104070 75956
L104042 75984
L103986 76012
L103761 76012
" />
<path d="M104577 76265
L104520 76293
L104408 76293
L104352 76265
L104323 76209
L104323 75984
L104352 75928
L104408 75899
L104520 75899
L104577 75928
L104605 75984
L104605 76040
L104323 76096
" />
<path d="M104802 75899
L104942 76293
L105083 75899
" />
<path d="M105308 76237
L105336 76265
L105308 76293
L105280 76265
L105308 76237
L105308 76293
" />
<path d="M105308 75928
L105336 75956
L105308 75984
L105280 75956
L105308 75928
L105308 75984
" />
</g>
<g style="fill:#000000; fill-opacity:0.0; 
stroke:#000000; stroke-width:39.3701; stroke-opacity:1; 
stroke-linecap:round; stroke-linejoin:round;">
</g>
<g style="fill:#000000; fill-opacity:0.0; 
stroke:#000000; stroke-width:59.0551; stroke-opacity:1; 
stroke-linecap:round; stroke-linejoin:round;">
<text x="70079.6" y="76321.7"
textLength="3781.21" font-size="787.402" lengthAdjust="spacingAndGlyphs"
text-anchor="start" opacity="0">Size: A4</text>
<path d="M70221 76265
L70305 76293
L70446 76293
L70502 76265
L70530 76237
L70559 76181
L70559 76124
L70530 76068
L70502 76040
L70446 76012
L70334 75984
L70277 75956
L70249 75928
L70221 75871
L70221 75815
L70249 75759
L70277 75731
L70334 75703
L70474 75703
L70559 75731
" />
<path d="M70812 76293
L70812 75899
" />
<path d="M70812 75703
L70784 75731
L70812 75759
L70840 75731
L70812 75703
L70812 75759
" />
<path d="M71037 75899
L71346 75899
L71037 76293
L71346 76293
" />
<path d="M71796 76265
L71740 76293
L71627 76293
L71571 76265
L71543 76209
L71543 75984
L71571 75928
L71627 75899
L71740 75899
L71796 75928
L71824 75984
L71824 76040
L71543 76096
" />
<path d="M72077 76237
L72105 76265
L72077 76293
L72049 76265
L72077 76237
L72077 76293
" />
<path d="M72077 75928
L72105 75956
L72077 75984
L72049 75956
L72077 75928
L72077 75984
" />
<path d="M72780 76124
L73061 76124
" />
<path d="M72724 76293
L72921 75703
L73118 76293
" />
<path d="M73568 75899
L73568 76293
" />
<path d="M73427 75674
L73286 76096
L73652 76096
" />
</g>
<g style="fill:#000000; fill-opacity:0.0; 
stroke:#000000; stroke-width:39.3701; stroke-opacity:1; 
stroke-linecap:round; stroke-linejoin:round;">
</g>
<g style="fill:#000000; fill-opacity:0.0; 
stroke:#000000; stroke-width:59.0551; stroke-opacity:1; 
stroke-linecap:round; stroke-linejoin:round;">
<text x="103544" y="77424.1"
textLength="3349.27" font-size="787.402" lengthAdjust="spacingAndGlyphs"
text-anchor="start" opacity="0">Id: 1/1</text>
<path d="M103714 77395
L103714 76805
" />
<path d="M104248 77395
L104248 76805
" />
<path d="M104248 77367
L104192 77395
L104079 77395
L104023 77367
L103995 77339
L103967 77283
L103967 77114
L103995 77058
L104023 77030
L104079 77002
L104192 77002
L104248 77030
" />
<path d="M104529 77339
L104557 77367
L104529 77395
L104501 77367
L104529 77339
L104529 77395
" />
<path d="M104529 77030
L104557 77058
L104529 77086
L104501 77058
L104529 77030
L104529 77086
" />
<path d="M105570 77395
L105232 77395
" />
<path d="M105401 77395
L105401 76805
L105345 76889
L105289 76946
L105232 76974
" />
<path d="M106245 76777
L105739 77536
" />
<path d="M106751 77395
L106413 77395
" />
<path d="M106582 77395
L106582 76805
L106526 76889
L106470 76946
L106413 76974
" />
</g>
<g style="fill:#000000; fill-opacity:0.0; 
stroke:#000000; stroke-width:39.3701; stroke-opacity:1; 
stroke-linecap:round; stroke-linejoin:round;">
</g>
<g style="fill:#000000; fill-opacity:0.0; 
stroke:#000000; stroke-width:59.0551; stroke-opacity:1; 
stroke-linecap:round; stroke-linejoin:round;">
<path d="M69685 73821
L112205 73821
" />
</g>
<g style="fill:#000000; fill-opacity:0.0; 
stroke:#000000; stroke-width:39.3701; stroke-opacity:1; 
stroke-linecap:round; stroke-linejoin:round;">
</g>
<g style="fill:#000000; fill-opacity:0.0; 
stroke:#000000; stroke-width:157.48; stroke-opacity:1; 
stroke-linecap:round; stroke-linejoin:round;">
<text x="70079.6" y="74924.1"
textLength="3701.14" font-size="1049.87" lengthAdjust="spacingAndGlyphs"
text-anchor="start" opacity="0">Title: </text>
<path d="M70360 74099
L70810 74099
" />
<path d="M70486 74886
L70585 74099
" />
<path d="M70974 74886
L71039 74361
" />
<path d="M71072 74099
L71030 74136
L71063 74174
L71105 74136
L71072 74099
L71063 74174
" />
<path d="M71302 74361
L71602 74361
" />
<path d="M71447 74099
L71363 74774
L71391 74849
L71461 74886
L71536 74886
" />
<path d="M71911 74886
L71841 74849
L71813 74774
L71897 74099
" />
<path d="M72516 74849
L72436 74886
L72286 74886
L72216 74849
L72187 74774
L72225 74474
L72272 74399
L72352 74361
L72501 74361
L72572 74399
L72600 74474
L72591 74549
L72206 74624
" />
<path d="M72895 74811
L72928 74849
L72886 74886
L72853 74849
L72895 74811
L72886 74886
" />
<path d="M72947 74399
L72980 74436
L72937 74474
L72905 74436
L72947 74399
L72937 74474
" />
</g>
<g style="fill:#000000; fill-opacity:0.0; 
stroke:#000000; stroke-width:39.3701; stroke-opacity:1; 
stroke-linecap:round; stroke-linejoin:round;">
</g>
<g style="fill:#000000; fill-opacity:0.0; 
stroke:#000000; stroke-width:59.0551; stroke-opacity:1; 
stroke-linecap:round; stroke-linejoin:round;">
<text x="70079.6" y="73408.3"
textLength="17330.7" font-size="787.402" lengthAdjust="spacingAndGlyphs"
text-anchor="start" opacity="0">File: MainBoardTurningTable.kicad_pcb</text>
<path d="M70446 73070
L70249 73070
" />
<path d="M70249 73380
L70249 72789
L70530 72789
" />
<path d="M70755 73380
L70755 72986
" />
<path d="M70755 72789
L70727 72817
L70755 72845
L70784 72817
L70755 72789
L70755 72845
" />
<path d="M71121 73380
L71065 73352
L71037 73295
L71037 72789
" />
<path d="M71571 73352
L71515 73380
L71402 73380
L71346 73352
L71318 73295
L71318 73070
L71346 73014
L71402 72986
L71515 72986
L71571 73014
L71599 73070
L71599 73127
L71318 73183
" />
<path d="M71852 73323
L71880 73352
L71852 73380
L71824 73352
L71852 73323
L71852 73380
" />
<path d="M71852 73014
L71880 73042
L71852 73070
L71824 73042
L71852 73014
L71852 73070
" />
<path d="M72583 73380
L72583 72789
L72780 73211
L72977 72789
L72977 73380
" />
<path d="M73511 73380
L73511 73070
L73483 73014
L73427 72986
L73314 72986
L73258 73014
" />
<path d="M73511 73352
L73455 73380
L73314 73380
L73258 73352
L73230 73295
L73230 73239
L73258 73183
L73314 73155
L73455 73155
L73511 73127
" />
<path d="M73793 73380
L73793 72986
" />
<path d="M73793 72789
L73764 72817
L73793 72845
L73821 72817
L73793 72789
L73793 72845
" />
<path d="M74074 72986
L74074 73380
" />
<path d="M74074 73042
L74102 73014
L74158 72986
L74242 72986
L74299 73014
L74327 73070
L74327 73380
" />
<path d="M74805 73070
L74889 73099
L74917 73127
L74946 73183
L74946 73267
L74917 73323
L74889 73352
L74833 73380
L74608 73380
L74608 72789
L74805 72789
L74861 72817
L74889 72845
L74917 72902
L74917 72958
L74889 73014
L74861 73042
L74805 73070
L74608 73070
" />
<path d="M75283 73380
L75227 73352
L75199 73323
L75171 73267
L75171 73099
L75199 73042
L75227 73014
L75283 72986
L75367 72986
L75424 73014
L75452 73042
L75480 73099
L75480 73267
L75452 73323
L75424 73352
L75367 73380
L75283 73380
" />
<path d="M75986 73380
L75986 73070
L75958 73014
L75902 72986
L75789 72986
L75733 73014
" />
<path d="M75986 73352
L75930 73380
L75789 73380
L75733 73352
L75705 73295
L75705 73239
L75733 73183
L75789 73155
L75930 73155
L75986 73127
" />
<path d="M76267 73380
L76267 72986
" />
<path d="M76267 73099
L76295 73042
L76323 73014
L76380 72986
L76436 72986
" />
<path d="M76886 73380
L76886 72789
" />
<path d="M76886 73352
L76830 73380
L76717 73380
L76661 73352
L76633 73323
L76605 73267
L76605 73099
L76633 73042
L76661 73014
L76717 72986
L76830 72986
L76886 73014
" />
<path d="M77083 72789
L77420 72789
" />
<path d="M77251 73380
L77251 72789
" />
<path d="M77870 72986
L77870 73380
" />
<path d="M77617 72986
L77617 73295
L77645 73352
L77701 73380
L77786 73380
L77842 73352
L77870 73323
" />
<path d="M78151 73380
L78151 72986
" />
<path d="M78151 73099
L78180 73042
L78208 73014
L78264 72986
L78320 72986
" />
<path d="M78517 72986
L78517 73380
" />
<path d="M78517 73042
L78545 73014
L78601 72986
L78686 72986
L78742 73014
L78770 73070
L78770 73380
" />
<path d="M79051 73380
L79051 72986
" />
<path d="M79051 72789
L79023 72817
L79051 72845
L79079 72817
L79051 72789
L79051 72845
" />
<path d="M79332 72986
L79332 73380
" />
<path d="M79332 73042
L79361 73014
L79417 72986
L79501 72986
L79557 73014
L79586 73070
L79586 73380
" />
<path d="M80120 72986
L80120 73464
L80092 73520
L80064 73548
L80007 73577
L79923 73577
L79867 73548
" />
<path d="M80120 73352
L80064 73380
L79951 73380
L79895 73352
L79867 73323
L79839 73267
L79839 73099
L79867 73042
L79895 73014
L79951 72986
L80064 72986
L80120 73014
" />
<path d="M80317 72789
L80654 72789
" />
<path d="M80485 73380
L80485 72789
" />
<path d="M81104 73380
L81104 73070
L81076 73014
L81020 72986
L80907 72986
L80851 73014
" />
<path d="M81104 73352
L81048 73380
L80907 73380
L80851 73352
L80823 73295
L80823 73239
L80851 73183
L80907 73155
L81048 73155
L81104 73127
" />
<path d="M81385 73380
L81385 72789
" />
<path d="M81385 73014
L81442 72986
L81554 72986
L81610 73014
L81638 73042
L81667 73099
L81667 73267
L81638 73323
L81610 73352
L81554 73380
L81442 73380
L81385 73352
" />
<path d="M82004 73380
L81948 73352
L81920 73295
L81920 72789
" />
<path d="M82454 73352
L82398 73380
L82285 73380
L82229 73352
L82201 73295
L82201 73070
L82229 73014
L82285 72986
L82398 72986
L82454 73014
L82482 73070
L82482 73127
L82201 73183
" />
<path d="M82735 73323
L82763 73352
L82735 73380
L82707 73352
L82735 73323
L82735 73380
" />
<path d="M83016 73380
L83016 72789
" />
<path d="M83073 73155
L83241 73380
" />
<path d="M83241 72986
L83016 73211
" />
<path d="M83494 73380
L83494 72986
" />
<path d="M83494 72789
L83466 72817
L83494 72845
L83523 72817
L83494 72789
L83494 72845
" />
<path d="M84029 73352
L83973 73380
L83860 73380
L83804 73352
L83776 73323
L83748 73267
L83748 73099
L83776 73042
L83804 73014
L83860 72986
L83973 72986
L84029 73014
" />
<path d="M84535 73380
L84535 73070
L84507 73014
L84451 72986
L84338 72986
L84282 73014
" />
<path d="M84535 73352
L84479 73380
L84338 73380
L84282 73352
L84254 73295
L84254 73239
L84282 73183
L84338 73155
L84479 73155
L84535 73127
" />
<path d="M85069 73380
L85069 72789
" />
<path d="M85069 73352
L85013 73380
L84901 73380
L84844 73352
L84816 73323
L84788 73267
L84788 73099
L84816 73042
L84844 73014
L84901 72986
L85013 72986
L85069 73014
" />
<path d="M85210 73436
L85660 73436
" />
<path d="M85800 72986
L85800 73577
" />
<path d="M85800 73014
L85857 72986
L85969 72986
L86025 73014
L86054 73042
L86082 73099
L86082 73267
L86054 73323
L86025 73352
L85969 73380
L85857 73380
L85800 73352
" />
<path d="M86588 73352
L86532 73380
L86419 73380
L86363 73352
L86335 73323
L86307 73267
L86307 73099
L86335 73042
L86363 73014
L86419 72986
L86532 72986
L86588 73014
" />
<path d="M86841 73380
L86841 72789
" />
<path d="M86841 73014
L86897 72986
L87010 72986
L87066 73014
L87094 73042
L87122 73099
L87122 73267
L87094 73323
L87066 73352
L87010 73380
L86897 73380
L86841 73352
" />
</g>
<g style="fill:#000000; fill-opacity:0.0; 
stroke:#000000; stroke-width:39.3701; stroke-opacity:1; 
stroke-linecap:round; stroke-linejoin:round;">
</g>
<g style="fill:#000000; fill-opacity:0.0; 
stroke:#000000; stroke-width:59.0551; stroke-opacity:1; 
stroke-linecap:round; stroke-linejoin:round;">
<path d="M69685 71459
L112205 71459
" />
</g>
<g style="fill:#000000; fill-opacity:0.0; 
stroke:#000000; stroke-width:39.3701; stroke-opacity:1; 
stroke-linecap:round; stroke-linejoin:round;">
</g>
<g style="fill:#000000; fill-opacity:0.0; 
stroke:#000000; stroke-width:59.0551; stroke-opacity:1; 
stroke-linecap:round; stroke-linejoin:round;">
<text x="70079.6" y="72345.4"
textLength="3236.78" font-size="787.402" lengthAdjust="spacingAndGlyphs"
text-anchor="start" opacity="0">Sheet: </text>
<path d="M70221 72289
L70305 72317
L70446 72317
L70502 72289
L70530 72260
L70559 72204
L70559 72148
L70530 72092
L70502 72064
L70446 72036
L70334 72007
L70277 71979
L70249 71951
L70221 71895
L70221 71839
L70249 71782
L70277 71754
L70334 71726
L70474 71726
L70559 71754
" />
<path d="M70812 72317
L70812 71726
" />
<path d="M71065 72317
L71065 72007
L71037 71951
L70980 71923
L70896 71923
L70840 71951
L70812 71979
" />
<path d="M71571 72289
L71515 72317
L71402 72317
L71346 72289
L71318 72232
L71318 72007
L71346 71951
L71402 71923
L71515 71923
L71571 71951
L71599 72007
L71599 72064
L71318 72120
" />
<path d="M72077 72289
L72021 72317
L71908 72317
L71852 72289
L71824 72232
L71824 72007
L71852 71951
L71908 71923
L72021 71923
L72077 71951
L72105 72007
L72105 72064
L71824 72120
" />
<path d="M72274 71923
L72499 71923
" />
<path d="M72358 71726
L72358 72232
L72386 72289
L72443 72317
L72499 72317
" />
<path d="M72696 72260
L72724 72289
L72696 72317
L72668 72289
L72696 72260
L72696 72317
" />
<path d="M72696 71951
L72724 71979
L72696 72007
L72668 71979
L72696 71951
L72696 72007
" />
</g>
<g style="fill:#000000; fill-opacity:0.0; 
stroke:#000000; stroke-width:39.3701; stroke-opacity:1; 
stroke-linecap:round; stroke-linejoin:round;">
</g>
<g style="fill:#000000; fill-opacity:0.0; 
stroke:#000000; stroke-width:59.0551; stroke-opacity:1; 
stroke-linecap:round; stroke-linejoin:round;">
<path d="M77559 75396
L77559 76577
" />
</g>
<g style="fill:#000000; fill-opacity:0.0; 
stroke:#000000; stroke-width:39.3701; stroke-opacity:1; 
stroke-linecap:round; stroke-linejoin:round;">
</g>
<g style="fill:#000000; fill-opacity:0.0; 
stroke:#000000; stroke-width:59.0551; stroke-opacity:1; 
stroke-linecap:round; stroke-linejoin:round;">
<path d="M102756 75396
L102756 77955
" />
</g>
<g style="fill:#848484; fill-opacity:0.0; 
stroke:#848484; stroke-width:59.0551; stroke-opacity:1; 
stroke-linecap:round; stroke-linejoin:round;">
</g>
<g style="fill:#848484; fill-opacity:0.0; 
stroke:#848484; stroke-width:39.3701; stroke-opacity:1; 
stroke-linecap:round; stroke-linejoin:round;">
<path d="M30850 29500
L33133 29500
" />
<path d="M33133 29500
L33133 27500
" />
<path d="M33133 27500
L30850 27500
" />
<path d="M30850 27500
L30850 29500
" />
<path d="M31803 29500
L32000 29221
" />
<path d="M32000 29221
L32196 29500
" />
<circle cx="64500" cy="33000" r="590.551" /> 
<circle cx="64500" cy="35362.2" r="590.551" /> 
<path d="M30850 36000
L33133 36000
" />
<path d="M33133 36000
L33133 32000
" />
<path d="M33133 32000
L30850 32000
" />
<path d="M30850 32000
L30850 36000
" />
<path d="M31803 36000
L32000 35721
" />
<path d="M32000 35721
L32196 36000
" />
<circle cx="64500" cy="31250" r="590.551" /> 
<circle cx="64500" cy="28887.8" r="590.551" /> 
</g>
<g style="fill:#848484; fill-opacity:0.0; 
stroke:#848484; stroke-width:50; stroke-opacity:1; 
stroke-linecap:round; stroke-linejoin:round;">
<path d="M44500 36250
L38500 36250
" />
<path d="M38500 36250
L38500 28250
" />
<path d="M38500 28250
L44500 28250
" />
<path d="M44500 28250
L44500 36250
" />
</g>
<g style="fill:#848484; fill-opacity:0.0; 
stroke:#848484; stroke-width:78.7402; stroke-opacity:1; 
stroke-linecap:round; stroke-linejoin:round;">
<circle cx="44885.8" cy="35793.3" r="39.3701" /> 
</g>
<g style="fill:#848484; fill-opacity:0.0; 
stroke:#848484; stroke-width:39.3701; stroke-opacity:1; 
stroke-linecap:round; stroke-linejoin:round;">
<path d="M72279 38875
L74562 38875
" />
<path d="M74562 38875
L74562 34875
" />
<path d="M74562 34875
L72279 34875
" />
<path d="M72279 34875
L72279 38875
" />
<path d="M73232 38875
L73429 38597
" />
<path d="M73429 38597
L73625 38875
" />
<path d="M73761 28476
L72738 28476
" />
<path d="M74273 32492
L72226 32492
" />
<path d="M74273 29145
L74273 32492
" />
<path d="M72226 29145
L72226 32492
" />
<path d="M73761 28476
L74273 29145
" />
<path d="M72738 28476
L72226 29145
" />
<circle cx="41757.9" cy="32250" r="984.252" /> 
<path d="M42597 32678
L42401 32678
" />
<path d="M42499 32776
L42499 32579
" />
<path d="M69399 34750
L67116 34750
" />
<path d="M67116 34750
L67116 38750
" />
<path d="M67116 38750
L69399 38750
" />
<path d="M69399 38750
L69399 34750
" />
<path d="M68446 34750
L68250 35028
" />
<path d="M68250 35028
L68053 34750
" />
<path d="M68761 28476
L67738 28476
" />
<path d="M69273 32492
L67226 32492
" />
<path d="M69273 29145
L69273 32492
" />
<path d="M67226 29145
L67226 32492
" />
<path d="M68761 28476
L69273 29145
" />
<path d="M67738 28476
L67226 29145
" />
<g >
</g>
<g >
</g>
<g >
</g>
<g >
</g>
<g >
</g>
<g >
</g>
<g >
</g>
<g >
</g>
<g >
</g>
<g >
</g>
<g >
</g>
<g >
</g>
</g>
<g style="fill:#848484; fill-opacity:0.0; 
stroke:#848484; stroke-width:39.3701; stroke-opacity:1; 
stroke-linecap:round; stroke-linejoin:round;">
</g>
<g style="fill:#848484; fill-opacity:0.0; 
stroke:#848484; stroke-width:59.0551; stroke-opacity:1; 
stroke-linecap:round; stroke-linejoin:round;">
<g transform="rotate(-90 33606.3 28500)">
<text x="33606.3" y="28696.9"
textLength="3396.14" font-size="524.934" lengthAdjust="spacingAndGlyphs"
text-anchor="middle" opacity="0">LimitSwitch</text>
</g>
<path d="M33784 29887
L33784 30074
L33390 30074
" />
<path d="M33784 29756
L33521 29756
" />
<path d="M33390 29756
L33409 29774
L33428 29756
L33409 29737
L33390 29756
L33428 29756
" />
<path d="M33784 29568
L33521 29568
" />
<path d="M33559 29568
L33540 29549
L33521 29512
L33521 29456
L33540 29418
L33578 29399
L33784 29399
" />
<path d="M33578 29399
L33540 29381
L33521 29343
L33521 29287
L33540 29249
L33578 29231
L33784 29231
" />
<path d="M33784 29043
L33521 29043
" />
<path d="M33390 29043
L33409 29062
L33428 29043
L33409 29024
L33390 29043
L33428 29043
" />
<path d="M33521 28912
L33521 28762
" />
<path d="M33390 28856
L33728 28856
L33765 28837
L33784 28799
L33784 28762
" />
<path d="M33765 28649
L33784 28593
L33784 28500
L33765 28462
L33746 28443
L33709 28425
L33671 28425
L33634 28443
L33615 28462
L33596 28500
L33578 28574
L33559 28612
L33540 28631
L33503 28649
L33465 28649
L33428 28631
L33409 28612
L33390 28574
L33390 28481
L33409 28425
" />
<path d="M33521 28293
L33784 28218
L33596 28143
L33784 28068
L33521 27993
" />
<path d="M33784 27843
L33521 27843
" />
<path d="M33390 27843
L33409 27862
L33428 27843
L33409 27825
L33390 27843
L33428 27843
" />
<path d="M33521 27712
L33521 27562
" />
<path d="M33390 27656
L33728 27656
L33765 27637
L33784 27600
L33784 27562
" />
<path d="M33765 27262
L33784 27300
L33784 27375
L33765 27412
L33746 27431
L33709 27450
L33596 27450
L33559 27431
L33540 27412
L33521 27375
L33521 27300
L33540 27262
" />
<path d="M33784 27093
L33390 27093
" />
<path d="M33784 26925
L33578 26925
L33540 26943
L33521 26981
L33521 27037
L33540 27075
L33559 27093
" />
<g transform="rotate(-90 31126 28500)">
<text x="31126" y="28696.9"
textLength="1276.62" font-size="524.934" lengthAdjust="spacingAndGlyphs"
text-anchor="middle" opacity="0">SW2</text>
</g>
<path d="M31285 29024
L31304 28968
L31304 28874
L31285 28837
L31266 28818
L31229 28799
L31191 28799
L31154 28818
L31135 28837
L31116 28874
L31097 28949
L31079 28987
L31060 29006
L31022 29024
L30985 29024
L30947 29006
L30929 28987
L30910 28949
L30910 28856
L30929 28799
" />
<path d="M30910 28668
L31304 28574
L31022 28500
L31304 28425
L30910 28331
" />
<path d="M30947 28200
L30929 28181
L30910 28143
L30910 28050
L30929 28012
L30947 27993
L30985 27975
L31022 27975
L31079 27993
L31304 28218
L31304 27975
" />
<g transform="rotate(-90 63417.3 34181.1)">
<text x="63417.3" y="34378"
textLength="2345.24" font-size="524.934" lengthAdjust="spacingAndGlyphs"
text-anchor="middle" opacity="0">Switch1</text>
</g>
<path d="M63576 35240
L63595 35184
L63595 35090
L63576 35052
L63557 35034
L63520 35015
L63482 35015
L63445 35034
L63426 35052
L63407 35090
L63389 35165
L63370 35202
L63351 35221
L63314 35240
L63276 35240
L63239 35221
L63220 35202
L63201 35165
L63201 35071
L63220 35015
" />
<path d="M63332 34884
L63595 34809
L63407 34734
L63595 34659
L63332 34584
" />
<path d="M63595 34434
L63332 34434
" />
<path d="M63201 34434
L63220 34452
L63239 34434
L63220 34415
L63201 34434
L63239 34434
" />
<path d="M63332 34302
L63332 34152
" />
<path d="M63201 34246
L63539 34246
L63576 34227
L63595 34190
L63595 34152
" />
<path d="M63576 33853
L63595 33890
L63595 33965
L63576 34002
L63557 34021
L63520 34040
L63407 34040
L63370 34021
L63351 34002
L63332 33965
L63332 33890
L63351 33853
" />
<path d="M63595 33684
L63201 33684
" />
<path d="M63595 33515
L63389 33515
L63351 33534
L63332 33571
L63332 33628
L63351 33665
L63370 33684
" />
<path d="M63595 33121
L63595 33346
" />
<path d="M63595 33234
L63201 33234
L63257 33271
L63295 33309
L63314 33346
" />
<text x="64500" y="34378"
textLength="1276.62" font-size="524.934" lengthAdjust="spacingAndGlyphs"
text-anchor="middle" opacity="0">SW1</text>
<path d="M63975 34340
L64031 34359
L64125 34359
L64162 34340
L64181 34321
L64200 34284
L64200 34246
L64181 34209
L64162 34190
L64125 34171
L64050 34152
L64012 34134
L63993 34115
L63975 34077
L63975 34040
L63993 34002
L64012 33984
L64050 33965
L64143 33965
L64200 33984
" />
<path d="M64331 33965
L64425 34359
L64500 34077
L64574 34359
L64668 33965
" />
<path d="M65024 34359
L64799 34359
" />
<path d="M64912 34359
L64912 33965
L64874 34021
L64837 34059
L64799 34077
" />
<text x="60750" y="27696.9"
textLength="4632.45" font-size="524.934" lengthAdjust="spacingAndGlyphs"
text-anchor="middle" opacity="0">XL4005_DC-DC</text>
<path d="M58528 27284
L58790 27678
" />
<path d="M58790 27284
L58528 27678
" />
<path d="M59128 27678
L58940 27678
L58940 27284
" />
<path d="M59428 27415
L59428 27678
" />
<path d="M59334 27265
L59240 27546
L59484 27546
" />
<path d="M59709 27284
L59747 27284
L59784 27303
L59803 27321
L59821 27359
L59840 27434
L59840 27528
L59821 27603
L59803 27640
L59784 27659
L59747 27678
L59709 27678
L59672 27659
L59653 27640
L59634 27603
L59615 27528
L59615 27434
L59634 27359
L59653 27321
L59672 27303
L59709 27284
" />
<path d="M60084 27284
L60121 27284
L60159 27303
L60178 27321
L60196 27359
L60215 27434
L60215 27528
L60196 27603
L60178 27640
L60159 27659
L60121 27678
L60084 27678
L60046 27659
L60028 27640
L60009 27603
L59990 27528
L59990 27434
L60009 27359
L60028 27321
L60046 27303
L60084 27284
" />
<path d="M60571 27284
L60384 27284
L60365 27471
L60384 27453
L60421 27434
L60515 27434
L60553 27453
L60571 27471
L60590 27509
L60590 27603
L60571 27640
L60553 27659
L60515 27678
L60421 27678
L60384 27659
L60365 27640
" />
<path d="M60665 27715
L60965 27715
" />
<path d="M61059 27678
L61059 27284
L61153 27284
L61209 27303
L61246 27340
L61265 27378
L61284 27453
L61284 27509
L61265 27584
L61246 27621
L61209 27659
L61153 27678
L61059 27678
" />
<path d="M61678 27640
L61659 27659
L61603 27678
L61565 27678
L61509 27659
L61471 27621
L61453 27584
L61434 27509
L61434 27453
L61453 27378
L61471 27340
L61509 27303
L61565 27284
L61603 27284
L61659 27303
L61678 27321
" />
<path d="M61846 27528
L62146 27528
" />
<path d="M62334 27678
L62334 27284
L62427 27284
L62484 27303
L62521 27340
L62540 27378
L62559 27453
L62559 27509
L62540 27584
L62521 27621
L62484 27659
L62427 27678
L62334 27678
" />
<path d="M62952 27640
L62934 27659
L62877 27678
L62840 27678
L62784 27659
L62746 27621
L62727 27584
L62709 27509
L62709 27453
L62727 27378
L62746 27340
L62784 27303
L62840 27284
L62877 27284
L62934 27303
L62952 27321
" />
<g transform="rotate(-90 33606.3 34000)">
<text x="33606.3" y="34196.9"
textLength="3938.79" font-size="524.934" lengthAdjust="spacingAndGlyphs"
text-anchor="middle" opacity="0">MotorStepper</text>
</g>
<path d="M33784 35837
L33390 35837
L33671 35706
L33390 35574
L33784 35574
" />
<path d="M33784 35331
L33765 35368
L33746 35387
L33709 35406
L33596 35406
L33559 35387
L33540 35368
L33521 35331
L33521 35274
L33540 35237
L33559 35218
L33596 35199
L33709 35199
L33746 35218
L33765 35237
L33784 35274
L33784 35331
" />
<path d="M33521 35087
L33521 34937
" />
<path d="M33390 35031
L33728 35031
L33765 35012
L33784 34974
L33784 34937
" />
<path d="M33784 34749
L33765 34787
L33746 34806
L33709 34824
L33596 34824
L33559 34806
L33540 34787
L33521 34749
L33521 34693
L33540 34656
L33559 34637
L33596 34618
L33709 34618
L33746 34637
L33765 34656
L33784 34693
L33784 34749
" />
<path d="M33784 34449
L33521 34449
" />
<path d="M33596 34449
L33559 34431
L33540 34412
L33521 34374
L33521 34337
" />
<path d="M33765 34224
L33784 34168
L33784 34074
L33765 34037
L33746 34018
L33709 34000
L33671 34000
L33634 34018
L33615 34037
L33596 34074
L33578 34149
L33559 34187
L33540 34206
L33503 34224
L33465 34224
L33428 34206
L33409 34187
L33390 34149
L33390 34056
L33409 34000
" />
<path d="M33521 33887
L33521 33737
" />
<path d="M33390 33831
L33728 33831
L33765 33812
L33784 33775
L33784 33737
" />
<path d="M33765 33456
L33784 33493
L33784 33568
L33765 33606
L33728 33625
L33578 33625
L33540 33606
L33521 33568
L33521 33493
L33540 33456
L33578 33437
L33615 33437
L33653 33625
" />
<path d="M33521 33268
L33915 33268
" />
<path d="M33540 33268
L33521 33231
L33521 33156
L33540 33118
L33559 33100
L33596 33081
L33709 33081
L33746 33100
L33765 33118
L33784 33156
L33784 33231
L33765 33268
" />
<path d="M33521 32912
L33915 32912
" />
<path d="M33540 32912
L33521 32875
L33521 32800
L33540 32762
L33559 32743
L33596 32725
L33709 32725
L33746 32743
L33765 32762
L33784 32800
L33784 32875
L33765 32912
" />
<path d="M33765 32406
L33784 32443
L33784 32518
L33765 32556
L33728 32575
L33578 32575
L33540 32556
L33521 32518
L33521 32443
L33540 32406
L33578 32387
L33615 32387
L33653 32575
" />
<path d="M33784 32218
L33521 32218
" />
<path d="M33596 32218
L33559 32200
L33540 32181
L33521 32143
L33521 32106
" />
<g transform="rotate(-90 31126 34000)">
<text x="31126" y="34196.9"
textLength="1501.59" font-size="524.934" lengthAdjust="spacingAndGlyphs"
text-anchor="middle" opacity="0">MSt1</text>
</g>
<path d="M31304 34618
L30910 34618
L31191 34487
L30910 34356
L31304 34356
" />
<path d="M31285 34187
L31304 34131
L31304 34037
L31285 34000
L31266 33981
L31229 33962
L31191 33962
L31154 33981
L31135 34000
L31116 34037
L31097 34112
L31079 34149
L31060 34168
L31022 34187
L30985 34187
L30947 34168
L30929 34149
L30910 34112
L30910 34018
L30929 33962
" />
<path d="M31041 33850
L31041 33700
" />
<path d="M30910 33793
L31247 33793
L31285 33775
L31304 33737
L31304 33700
" />
<path d="M31304 33362
L31304 33587
" />
<path d="M31304 33475
L30910 33475
L30966 33512
L31004 33550
L31022 33587
" />
<g transform="rotate(-90 65582.7 30068.9)">
<text x="65582.7" y="30265.7"
textLength="3226.38" font-size="524.934" lengthAdjust="spacingAndGlyphs"
text-anchor="middle" opacity="0">Emergency</text>
</g>
<path d="M65554 31549
L65554 31418
" />
<path d="M65760 31362
L65760 31549
L65367 31549
L65367 31362
" />
<path d="M65760 31193
L65498 31193
" />
<path d="M65535 31193
L65517 31175
L65498 31137
L65498 31081
L65517 31043
L65554 31025
L65760 31025
" />
<path d="M65554 31025
L65517 31006
L65498 30968
L65498 30912
L65517 30875
L65554 30856
L65760 30856
" />
<path d="M65742 30518
L65760 30556
L65760 30631
L65742 30668
L65704 30687
L65554 30687
L65517 30668
L65498 30631
L65498 30556
L65517 30518
L65554 30500
L65592 30500
L65629 30687
" />
<path d="M65760 30331
L65498 30331
" />
<path d="M65573 30331
L65535 30312
L65517 30293
L65498 30256
L65498 30218
" />
<path d="M65498 29918
L65817 29918
L65854 29937
L65873 29956
L65892 29993
L65892 30050
L65873 30087
" />
<path d="M65742 29918
L65760 29956
L65760 30031
L65742 30068
L65723 30087
L65685 30106
L65573 30106
L65535 30087
L65517 30068
L65498 30031
L65498 29956
L65517 29918
" />
<path d="M65742 29581
L65760 29618
L65760 29693
L65742 29731
L65704 29750
L65554 29750
L65517 29731
L65498 29693
L65498 29618
L65517 29581
L65554 29562
L65592 29562
L65629 29750
" />
<path d="M65498 29393
L65760 29393
" />
<path d="M65535 29393
L65517 29375
L65498 29337
L65498 29281
L65517 29244
L65554 29225
L65760 29225
" />
<path d="M65742 28869
L65760 28906
L65760 28981
L65742 29019
L65723 29037
L65685 29056
L65573 29056
L65535 29037
L65517 29019
L65498 28981
L65498 28906
L65517 28869
" />
<path d="M65498 28737
L65760 28644
" />
<path d="M65498 28550
L65760 28644
L65854 28681
L65873 28700
L65892 28737
" />
<text x="64500" y="30265.7"
textLength="1689.07" font-size="524.934" lengthAdjust="spacingAndGlyphs"
text-anchor="middle" opacity="0">Emg1</text>
<path d="M63787 30040
L63918 30040
" />
<path d="M63975 30247
L63787 30247
L63787 29853
L63975 29853
" />
<path d="M64143 30247
L64143 29984
" />
<path d="M64143 30022
L64162 30003
L64200 29984
L64256 29984
L64293 30003
L64312 30040
L64312 30247
" />
<path d="M64312 30040
L64331 30003
L64368 29984
L64425 29984
L64462 30003
L64481 30040
L64481 30247
" />
<path d="M64837 29984
L64837 30303
L64818 30340
L64799 30359
L64762 30378
L64706 30378
L64668 30359
" />
<path d="M64837 30228
L64799 30247
L64724 30247
L64687 30228
L64668 30209
L64649 30172
L64649 30059
L64668 30022
L64687 30003
L64724 29984
L64799 29984
L64837 30003
" />
<path d="M65231 30247
L65006 30247
" />
<path d="M65118 30247
L65118 29853
L65081 29909
L65043 29947
L65006 29965
" />
<text x="34750" y="27696.9"
textLength="12956.4" font-size="524.934" lengthAdjust="spacingAndGlyphs"
text-anchor="middle" opacity="0">DRV8825_STEPPER_MOTOR_DRIVER_CARRIER</text>
<path d="M28403 27678
L28403 27284
L28497 27284
L28553 27303
L28591 27340
L28610 27378
L28628 27453
L28628 27509
L28610 27584
L28591 27621
L28553 27659
L28497 27678
L28403 27678
" />
<path d="M29022 27678
L28891 27490
" />
<path d="M28797 27678
L28797 27284
L28947 27284
L28985 27303
L29003 27321
L29022 27359
L29022 27415
L29003 27453
L28985 27471
L28947 27490
L28797 27490
" />
<path d="M29135 27284
L29266 27678
L29397 27284
" />
<path d="M29585 27453
L29547 27434
L29528 27415
L29510 27378
L29510 27359
L29528 27321
L29547 27303
L29585 27284
L29660 27284
L29697 27303
L29716 27321
L29735 27359
L29735 27378
L29716 27415
L29697 27434
L29660 27453
L29585 27453
L29547 27471
L29528 27490
L29510 27528
L29510 27603
L29528 27640
L29547 27659
L29585 27678
L29660 27678
L29697 27659
L29716 27640
L29735 27603
L29735 27528
L29716 27490
L29697 27471
L29660 27453
" />
<path d="M29959 27453
L29922 27434
L29903 27415
L29884 27378
L29884 27359
L29903 27321
L29922 27303
L29959 27284
L30034 27284
L30072 27303
L30091 27321
L30109 27359
L30109 27378
L30091 27415
L30072 27434
L30034 27453
L29959 27453
L29922 27471
L29903 27490
L29884 27528
L29884 27603
L29903 27640
L29922 27659
L29959 27678
L30034 27678
L30072 27659
L30091 27640
L30109 27603
L30109 27528
L30091 27490
L30072 27471
L30034 27453
" />
<path d="M30259 27321
L30278 27303
L30316 27284
L30409 27284
L30447 27303
L30466 27321
L30484 27359
L30484 27396
L30466 27453
L30241 27678
L30484 27678
" />
<path d="M30841 27284
L30653 27284
L30634 27471
L30653 27453
L30691 27434
L30784 27434
L30822 27453
L30841 27471
L30859 27509
L30859 27603
L30841 27640
L30822 27659
L30784 27678
L30691 27678
L30653 27659
L30634 27640
" />
<path d="M30934 27715
L31234 27715
" />
<path d="M31309 27659
L31366 27678
L31459 27678
L31497 27659
L31516 27640
L31534 27603
L31534 27565
L31516 27528
L31497 27509
L31459 27490
L31384 27471
L31347 27453
L31328 27434
L31309 27396
L31309 27359
L31328 27321
L31347 27303
L31384 27284
L31478 27284
L31534 27303
" />
<path d="M31647 27284
L31872 27284
" />
<path d="M31759 27678
L31759 27284
" />
<path d="M32003 27471
L32134 27471
" />
<path d="M32190 27678
L32003 27678
L32003 27284
L32190 27284
" />
<path d="M32359 27678
L32359 27284
L32509 27284
L32547 27303
L32565 27321
L32584 27359
L32584 27415
L32565 27453
L32547 27471
L32509 27490
L32359 27490
" />
<path d="M32753 27678
L32753 27284
L32903 27284
L32940 27303
L32959 27321
L32978 27359
L32978 27415
L32959 27453
L32940 27471
L32903 27490
L32753 27490
" />
<path d="M33147 27471
L33278 27471
" />
<path d="M33334 27678
L33147 27678
L33147 27284
L33334 27284
" />
<path d="M33728 27678
L33597 27490
" />
<path d="M33503 27678
L33503 27284
L33653 27284
L33690 27303
L33709 27321
L33728 27359
L33728 27415
L33709 27453
L33690 27471
L33653 27490
L33503 27490
" />
<path d="M33803 27715
L34103 27715
" />
<path d="M34196 27678
L34196 27284
L34328 27565
L34459 27284
L34459 27678
" />
<path d="M34721 27284
L34796 27284
L34834 27303
L34871 27340
L34890 27415
L34890 27546
L34871 27621
L34834 27659
L34796 27678
L34721 27678
L34684 27659
L34646 27621
L34628 27546
L34628 27415
L34646 27340
L34684 27303
L34721 27284
" />
<path d="M35003 27284
L35228 27284
" />
<path d="M35115 27678
L35115 27284
" />
<path d="M35434 27284
L35509 27284
L35546 27303
L35584 27340
L35603 27415
L35603 27546
L35584 27621
L35546 27659
L35509 27678
L35434 27678
L35396 27659
L35359 27621
L35340 27546
L35340 27415
L35359 27340
L35396 27303
L35434 27284
" />
<path d="M35996 27678
L35865 27490
" />
<path d="M35771 27678
L35771 27284
L35921 27284
L35959 27303
L35977 27321
L35996 27359
L35996 27415
L35977 27453
L35959 27471
L35921 27490
L35771 27490
" />
<path d="M36071 27715
L36371 27715
" />
<path d="M36465 27678
L36465 27284
L36559 27284
L36615 27303
L36652 27340
L36671 27378
L36690 27453
L36690 27509
L36671 27584
L36652 27621
L36615 27659
L36559 27678
L36465 27678
" />
<path d="M37084 27678
L36952 27490
" />
<path d="M36859 27678
L36859 27284
L37009 27284
L37046 27303
L37065 27321
L37084 27359
L37084 27415
L37065 27453
L37046 27471
L37009 27490
L36859 27490
" />
<path d="M37252 27678
L37252 27284
" />
<path d="M37384 27284
L37515 27678
L37646 27284
" />
<path d="M37777 27471
L37908 27471
" />
<path d="M37965 27678
L37777 27678
L37777 27284
L37965 27284
" />
<path d="M38358 27678
L38227 27490
" />
<path d="M38133 27678
L38133 27284
L38283 27284
L38321 27303
L38340 27321
L38358 27359
L38358 27415
L38340 27453
L38321 27471
L38283 27490
L38133 27490
" />
<path d="M38433 27715
L38733 27715
" />
<path d="M39052 27640
L39033 27659
L38977 27678
L38940 27678
L38883 27659
L38846 27621
L38827 27584
L38808 27509
L38808 27453
L38827 27378
L38846 27340
L38883 27303
L38940 27284
L38977 27284
L39033 27303
L39052 27321
" />
<path d="M39202 27565
L39390 27565
" />
<path d="M39165 27678
L39296 27284
L39427 27678
" />
<path d="M39783 27678
L39652 27490
" />
<path d="M39558 27678
L39558 27284
L39708 27284
L39746 27303
L39764 27321
L39783 27359
L39783 27415
L39764 27453
L39746 27471
L39708 27490
L39558 27490
" />
<path d="M40177 27678
L40046 27490
" />
<path d="M39952 27678
L39952 27284
L40102 27284
L40139 27303
L40158 27321
L40177 27359
L40177 27415
L40158 27453
L40139 27471
L40102 27490
L39952 27490
" />
<path d="M40346 27678
L40346 27284
" />
<path d="M40533 27471
L40664 27471
" />
<path d="M40721 27678
L40533 27678
L40533 27284
L40721 27284
" />
<path d="M41114 27678
L40983 27490
" />
<path d="M40889 27678
L40889 27284
L41039 27284
L41077 27303
L41096 27321
L41114 27359
L41114 27415
L41096 27453
L41077 27471
L41039 27490
L40889 27490
" />
<g transform="rotate(-90 75035.4 36876)">
<text x="75035.4" y="37072.8"
textLength="3695.07" font-size="524.934" lengthAdjust="spacingAndGlyphs"
text-anchor="middle" opacity="0">toCharger3S</text>
</g>
<path d="M74951 38647
L74951 38497
" />
<path d="M74819 38591
L75157 38591
L75194 38572
L75213 38535
L75213 38497
" />
<path d="M75213 38310
L75194 38347
L75176 38366
L75138 38385
L75026 38385
L74988 38366
L74969 38347
L74951 38310
L74951 38253
L74969 38216
L74988 38197
L75026 38178
L75138 38178
L75176 38197
L75194 38216
L75213 38253
L75213 38310
" />
<path d="M75176 37785
L75194 37803
L75213 37860
L75213 37897
L75194 37953
L75157 37991
L75119 38010
L75044 38028
L74988 38028
L74913 38010
L74876 37991
L74838 37953
L74819 37897
L74819 37860
L74838 37803
L74857 37785
" />
<path d="M75213 37616
L74819 37616
" />
<path d="M75213 37447
L75007 37447
L74969 37466
L74951 37504
L74951 37560
L74969 37597
L74988 37616
" />
<path d="M75213 37091
L75007 37091
L74969 37110
L74951 37147
L74951 37222
L74969 37260
" />
<path d="M75194 37091
L75213 37129
L75213 37222
L75194 37260
L75157 37279
L75119 37279
L75082 37260
L75063 37222
L75063 37129
L75044 37091
" />
<path d="M75213 36904
L74951 36904
" />
<path d="M75026 36904
L74988 36885
L74969 36866
L74951 36829
L74951 36791
" />
<path d="M74951 36491
L75269 36491
L75307 36510
L75326 36529
L75344 36566
L75344 36622
L75326 36660
" />
<path d="M75194 36491
L75213 36529
L75213 36604
L75194 36641
L75176 36660
L75138 36679
L75026 36679
L74988 36660
L74969 36641
L74951 36604
L74951 36529
L74969 36491
" />
<path d="M75194 36154
L75213 36191
L75213 36266
L75194 36304
L75157 36322
L75007 36322
L74969 36304
L74951 36266
L74951 36191
L74969 36154
L75007 36135
L75044 36135
L75082 36322
" />
<path d="M75213 35966
L74951 35966
" />
<path d="M75026 35966
L74988 35947
L74969 35929
L74951 35891
L74951 35854
" />
<path d="M74819 35760
L74819 35516
L74969 35648
L74969 35591
L74988 35554
L75007 35535
L75044 35516
L75138 35516
L75176 35535
L75194 35554
L75213 35591
L75213 35704
L75194 35741
L75176 35760
" />
<path d="M75194 35366
L75213 35310
L75213 35216
L75194 35179
L75176 35160
L75138 35141
L75101 35141
L75063 35160
L75044 35179
L75026 35216
L75007 35291
L74988 35329
L74969 35348
L74932 35366
L74894 35366
L74857 35348
L74838 35329
L74819 35291
L74819 35198
L74838 35141
" />
<g transform="rotate(-90 72555.1 36876)">
<text x="72555.1" y="37072.8"
textLength="2551.46" font-size="524.934" lengthAdjust="spacingAndGlyphs"
text-anchor="middle" opacity="0">Chrg3S1</text>
</g>
<path d="M72695 37794
L72714 37813
L72733 37869
L72733 37907
L72714 37963
L72676 38000
L72639 38019
L72564 38038
L72508 38038
L72433 38019
L72395 38000
L72358 37963
L72339 37907
L72339 37869
L72358 37813
L72377 37794
" />
<path d="M72733 37625
L72339 37625
" />
<path d="M72733 37457
L72526 37457
L72489 37475
L72470 37513
L72470 37569
L72489 37607
L72508 37625
" />
<path d="M72733 37269
L72470 37269
" />
<path d="M72545 37269
L72508 37250
L72489 37232
L72470 37194
L72470 37157
" />
<path d="M72470 36857
L72789 36857
L72826 36875
L72845 36894
L72864 36932
L72864 36988
L72845 37025
" />
<path d="M72714 36857
L72733 36894
L72733 36969
L72714 37007
L72695 37025
L72658 37044
L72545 37044
L72508 37025
L72489 37007
L72470 36969
L72470 36894
L72489 36857
" />
<path d="M72339 36707
L72339 36463
L72489 36594
L72489 36538
L72508 36501
L72526 36482
L72564 36463
L72658 36463
L72695 36482
L72714 36501
L72733 36538
L72733 36651
L72714 36688
L72695 36707
" />
<path d="M72714 36313
L72733 36257
L72733 36163
L72714 36126
L72695 36107
L72658 36088
L72620 36088
L72583 36107
L72564 36126
L72545 36163
L72526 36238
L72508 36276
L72489 36294
L72452 36313
L72414 36313
L72377 36294
L72358 36276
L72339 36238
L72339 36144
L72358 36088
" />
<path d="M72733 35713
L72733 35938
" />
<path d="M72733 35826
L72339 35826
L72395 35863
L72433 35901
L72452 35938
" />
<g transform="rotate(-90 71675.2 30484.3)">
<text x="71675.2" y="30681.1"
textLength="4032.53" font-size="524.934" lengthAdjust="spacingAndGlyphs"
text-anchor="middle" opacity="0">12VtoCharger</text>
</g>
<path d="M71853 32162
L71853 32387
" />
<path d="M71853 32274
L71459 32274
L71515 32312
L71553 32349
L71572 32387
" />
<path d="M71497 32012
L71478 31993
L71459 31955
L71459 31862
L71478 31824
L71497 31805
L71534 31787
L71572 31787
L71628 31805
L71853 32030
L71853 31787
" />
<path d="M71459 31674
L71853 31543
L71459 31412
" />
<path d="M71590 31337
L71590 31187
" />
<path d="M71459 31281
L71797 31281
L71834 31262
L71853 31224
L71853 31187
" />
<path d="M71853 30999
L71834 31037
L71815 31056
L71778 31074
L71665 31074
L71628 31056
L71609 31037
L71590 30999
L71590 30943
L71609 30906
L71628 30887
L71665 30868
L71778 30868
L71815 30887
L71834 30906
L71853 30943
L71853 30999
" />
<path d="M71815 30474
L71834 30493
L71853 30549
L71853 30587
L71834 30643
L71797 30681
L71759 30699
L71684 30718
L71628 30718
L71553 30699
L71515 30681
L71478 30643
L71459 30587
L71459 30549
L71478 30493
L71497 30474
" />
<path d="M71853 30306
L71459 30306
" />
<path d="M71853 30137
L71647 30137
L71609 30156
L71590 30193
L71590 30249
L71609 30287
L71628 30306
" />
<path d="M71853 29781
L71647 29781
L71609 29799
L71590 29837
L71590 29912
L71609 29949
" />
<path d="M71834 29781
L71853 29818
L71853 29912
L71834 29949
L71797 29968
L71759 29968
L71722 29949
L71703 29912
L71703 29818
L71684 29781
" />
<path d="M71853 29593
L71590 29593
" />
<path d="M71665 29593
L71628 29574
L71609 29556
L71590 29518
L71590 29481
" />
<path d="M71590 29181
L71909 29181
L71947 29200
L71965 29218
L71984 29256
L71984 29312
L71965 29350
" />
<path d="M71834 29181
L71853 29218
L71853 29293
L71834 29331
L71815 29350
L71778 29368
L71665 29368
L71628 29350
L71609 29331
L71590 29293
L71590 29218
L71609 29181
" />
<path d="M71834 28843
L71853 28881
L71853 28956
L71834 28993
L71797 29012
L71647 29012
L71609 28993
L71590 28956
L71590 28881
L71609 28843
L71647 28825
L71684 28825
L71722 29012
" />
<path d="M71853 28656
L71590 28656
" />
<path d="M71665 28656
L71628 28637
L71609 28618
L71590 28581
L71590 28543
" />
<g transform="rotate(-90 73250 30484.3)">
<text x="73250" y="30681.1"
textLength="2120.27" font-size="524.934" lengthAdjust="spacingAndGlyphs"
text-anchor="middle" opacity="0">chrg12</text>
</g>
<path d="M73409 31243
L73428 31281
L73428 31356
L73409 31393
L73390 31412
L73353 31431
L73240 31431
L73203 31412
L73184 31393
L73165 31356
L73165 31281
L73184 31243
" />
<path d="M73428 31074
L73034 31074
" />
<path d="M73428 30906
L73221 30906
L73184 30924
L73165 30962
L73165 31018
L73184 31056
L73203 31074
" />
<path d="M73428 30718
L73165 30718
" />
<path d="M73240 30718
L73203 30699
L73184 30681
L73165 30643
L73165 30606
" />
<path d="M73165 30306
L73484 30306
L73521 30324
L73540 30343
L73559 30381
L73559 30437
L73540 30474
" />
<path d="M73409 30306
L73428 30343
L73428 30418
L73409 30456
L73390 30474
L73353 30493
L73240 30493
L73203 30474
L73184 30456
L73165 30418
L73165 30343
L73184 30306
" />
<path d="M73428 29912
L73428 30137
" />
<path d="M73428 30024
L73034 30024
L73090 30062
L73128 30099
L73146 30137
" />
<path d="M73071 29762
L73053 29743
L73034 29706
L73034 29612
L73053 29574
L73071 29556
L73109 29537
L73146 29537
L73203 29556
L73428 29781
L73428 29537
" />
<text x="41757.9" y="30970.5"
textLength="1895.29" font-size="524.934" lengthAdjust="spacingAndGlyphs"
text-anchor="middle" opacity="0">100uF</text>
<path d="M41148 30951
L40923 30951
" />
<path d="M41036 30951
L41036 30558
L40998 30614
L40961 30651
L40923 30670
" />
<path d="M41392 30558
L41429 30558
L41467 30576
L41486 30595
L41504 30633
L41523 30708
L41523 30801
L41504 30876
L41486 30914
L41467 30932
L41429 30951
L41392 30951
L41354 30932
L41336 30914
L41317 30876
L41298 30801
L41298 30708
L41317 30633
L41336 30595
L41354 30576
L41392 30558
" />
<path d="M41767 30558
L41804 30558
L41842 30576
L41860 30595
L41879 30633
L41898 30708
L41898 30801
L41879 30876
L41860 30914
L41842 30932
L41804 30951
L41767 30951
L41729 30932
L41711 30914
L41692 30876
L41673 30801
L41673 30708
L41692 30633
L41711 30595
L41729 30576
L41767 30558
" />
<path d="M42235 30689
L42235 30951
" />
<path d="M42067 30689
L42067 30895
L42085 30932
L42123 30951
L42179 30951
L42217 30932
L42235 30914
" />
<path d="M42554 30745
L42423 30745
" />
<path d="M42423 30951
L42423 30558
L42610 30558
" />
<text x="41757.9" y="32446.9"
textLength="845.426" font-size="524.934" lengthAdjust="spacingAndGlyphs"
text-anchor="middle" opacity="0">C1</text>
<path d="M41692 32390
L41673 32409
L41617 32428
L41579 32428
L41523 32409
L41486 32371
L41467 32334
L41448 32259
L41448 32203
L41467 32128
L41486 32090
L41523 32053
L41579 32034
L41617 32034
L41673 32053
L41692 32071
" />
<path d="M42067 32428
L41842 32428
" />
<path d="M41954 32428
L41954 32034
L41917 32090
L41879 32128
L41842 32146
" />
<g transform="rotate(-90 66643.7 36750)">
<text x="66643.7" y="36946.9"
textLength="3488.85" font-size="524.934" lengthAdjust="spacingAndGlyphs"
text-anchor="middle" opacity="0">toBattery3S</text>
</g>
<path d="M66559 38418
L66559 38268
" />
<path d="M66428 38362
L66765 38362
L66803 38343
L66821 38306
L66821 38268
" />
<path d="M66821 38081
L66803 38118
L66784 38137
L66746 38156
L66634 38156
L66596 38137
L66578 38118
L66559 38081
L66559 38024
L66578 37987
L66596 37968
L66634 37949
L66746 37949
L66784 37968
L66803 37987
L66821 38024
L66821 38081
" />
<path d="M66615 37649
L66634 37593
L66653 37574
L66690 37556
L66746 37556
L66784 37574
L66803 37593
L66821 37631
L66821 37781
L66428 37781
L66428 37649
L66446 37612
L66465 37593
L66503 37574
L66540 37574
L66578 37593
L66596 37612
L66615 37649
L66615 37781
" />
<path d="M66821 37218
L66615 37218
L66578 37237
L66559 37274
L66559 37349
L66578 37387
" />
<path d="M66803 37218
L66821 37256
L66821 37349
L66803 37387
L66765 37406
L66728 37406
L66690 37387
L66671 37349
L66671 37256
L66653 37218
" />
<path d="M66559 37087
L66559 36937
" />
<path d="M66428 37031
L66765 37031
L66803 37012
L66821 36974
L66821 36937
" />
<path d="M66559 36862
L66559 36712
" />
<path d="M66428 36806
L66765 36806
L66803 36787
L66821 36750
L66821 36712
" />
<path d="M66803 36431
L66821 36468
L66821 36543
L66803 36581
L66765 36600
L66615 36600
L66578 36581
L66559 36543
L66559 36468
L66578 36431
L66615 36412
L66653 36412
L66690 36600
" />
<path d="M66821 36243
L66559 36243
" />
<path d="M66634 36243
L66596 36225
L66578 36206
L66559 36168
L66559 36131
" />
<path d="M66559 36037
L66821 35943
" />
<path d="M66559 35850
L66821 35943
L66915 35981
L66934 36000
L66953 36037
" />
<path d="M66428 35737
L66428 35493
L66578 35625
L66578 35568
L66596 35531
L66615 35512
L66653 35493
L66746 35493
L66784 35512
L66803 35531
L66821 35568
L66821 35681
L66803 35718
L66784 35737
" />
<path d="M66803 35343
L66821 35287
L66821 35193
L66803 35156
L66784 35137
L66746 35118
L66709 35118
L66671 35137
L66653 35156
L66634 35193
L66615 35268
L66596 35306
L66578 35325
L66540 35343
L66503 35343
L66465 35325
L66446 35306
L66428 35268
L66428 35175
L66446 35118
" />
<g transform="rotate(-90 69124 36750)">
<text x="69124" y="36946.9"
textLength="1820.3" font-size="524.934" lengthAdjust="spacingAndGlyphs"
text-anchor="middle" opacity="0">Bt3S1</text>
</g>
<path d="M69095 37396
L69114 37340
L69133 37321
L69170 37303
L69227 37303
L69264 37321
L69283 37340
L69302 37378
L69302 37528
L68908 37528
L68908 37396
L68927 37359
L68945 37340
L68983 37321
L69020 37321
L69058 37340
L69077 37359
L69095 37396
L69095 37528
" />
<path d="M69039 37190
L69039 37040
" />
<path d="M68908 37134
L69245 37134
L69283 37115
L69302 37078
L69302 37040
" />
<path d="M68908 36946
L68908 36703
L69058 36834
L69058 36778
L69077 36740
L69095 36721
L69133 36703
L69227 36703
L69264 36721
L69283 36740
L69302 36778
L69302 36890
L69283 36928
L69264 36946
" />
<path d="M69283 36553
L69302 36496
L69302 36403
L69283 36365
L69264 36346
L69227 36328
L69189 36328
L69152 36346
L69133 36365
L69114 36403
L69095 36478
L69077 36515
L69058 36534
L69020 36553
L68983 36553
L68945 36534
L68927 36515
L68908 36478
L68908 36384
L68927 36328
" />
<path d="M69302 35953
L69302 36178
" />
<path d="M69302 36065
L68908 36065
L68964 36103
L69002 36140
L69020 36178
" />
<g transform="rotate(-90 66675.2 30484.3)">
<text x="66675.2" y="30681.1"
textLength="3263.87" font-size="524.934" lengthAdjust="spacingAndGlyphs"
text-anchor="middle" opacity="0">Bt12VInput</text>
</g>
<path d="M66647 31852
L66665 31796
L66684 31777
L66722 31759
L66778 31759
L66815 31777
L66834 31796
L66853 31834
L66853 31984
L66459 31984
L66459 31852
L66478 31815
L66497 31796
L66534 31777
L66572 31777
L66609 31796
L66628 31815
L66647 31852
L66647 31984
" />
<path d="M66590 31646
L66590 31496
" />
<path d="M66459 31590
L66797 31590
L66834 31571
L66853 31534
L66853 31496
" />
<path d="M66853 31159
L66853 31384
" />
<path d="M66853 31271
L66459 31271
L66515 31309
L66553 31346
L66572 31384
" />
<path d="M66497 31009
L66478 30990
L66459 30952
L66459 30859
L66478 30821
L66497 30802
L66534 30784
L66572 30784
L66628 30802
L66853 31027
L66853 30784
" />
<path d="M66459 30671
L66853 30540
L66459 30409
" />
<path d="M66853 30278
L66459 30278
" />
<path d="M66590 30090
L66853 30090
" />
<path d="M66628 30090
L66609 30071
L66590 30034
L66590 29978
L66609 29940
L66647 29921
L66853 29921
" />
<path d="M66590 29734
L66984 29734
" />
<path d="M66609 29734
L66590 29696
L66590 29621
L66609 29584
L66628 29565
L66665 29546
L66778 29546
L66815 29565
L66834 29584
L66853 29621
L66853 29696
L66834 29734
" />
<path d="M66590 29209
L66853 29209
" />
<path d="M66590 29378
L66797 29378
L66834 29359
L66853 29321
L66853 29265
L66834 29228
L66815 29209
" />
<path d="M66590 29078
L66590 28928
" />
<path d="M66459 29021
L66797 29021
L66834 29003
L66853 28965
L66853 28928
" />
<g transform="rotate(-90 68250 30484.3)">
<text x="68250" y="30681.1"
textLength="2157.76" font-size="524.934" lengthAdjust="spacingAndGlyphs"
text-anchor="middle" opacity="0">Bt12V1</text>
</g>
<path d="M68221 31299
L68240 31243
L68259 31224
L68296 31206
L68353 31206
L68390 31224
L68409 31243
L68428 31281
L68428 31431
L68034 31431
L68034 31299
L68053 31262
L68071 31243
L68109 31224
L68146 31224
L68184 31243
L68203 31262
L68221 31299
L68221 31431
" />
<path d="M68165 31093
L68165 30943
" />
<path d="M68034 31037
L68371 31037
L68409 31018
L68428 30981
L68428 30943
" />
<path d="M68428 30606
L68428 30831
" />
<path d="M68428 30718
L68034 30718
L68090 30756
L68128 30793
L68146 30831
" />
<path d="M68071 30456
L68053 30437
L68034 30399
L68034 30306
L68053 30268
L68071 30249
L68109 30231
L68146 30231
L68203 30249
L68428 30474
L68428 30231
" />
<path d="M68034 30118
L68428 29987
L68034 29856
" />
<path d="M68428 29518
L68428 29743
" />
<path d="M68428 29631
L68034 29631
L68090 29668
L68128 29706
L68146 29743
" />
<g >
</g>
</g>
<g style="fill:#000000; fill-opacity:0.0; 
stroke:#000000; stroke-width:59.0551; stroke-opacity:1; 
stroke-linecap:round; stroke-linejoin:round;">
</g>
<g style="fill:#C2C200; fill-opacity:0.0; 
stroke:#C2C200; stroke-width:59.0551; stroke-opacity:1; 
stroke-linecap:round; stroke-linejoin:round;">
</g>
<g style="fill:#C2C200; fill-opacity:0.0; 
stroke:#C2C200; stroke-width:19.685; stroke-opacity:1; 
stroke-linecap:round; stroke-linejoin:round;">
<path d="M64000 42000
L37000 42000
" />
<path d="M64000 39750
L64000 42000
" />
<path d="M75250 39750
L64000 39750
" />
<path d="M75250 26250
L75250 39750
" />
<path d="M30000 26250
L75250 26250
" />
<path d="M30000 26750
L30000 26250
" />
<path d="M30000 39000
L30000 26750
" />
<path d="M37000 39000
L30000 39000
" />
<path d="M37000 39250
L37000 39000
" />
<path d="M37000 40000
L37000 39250
" />
<path d="M37000 42000
L37000 40000
" />
<g >
</g>
<g >
</g>
<g >
</g>
<g >
</g>
<g >
</g>
<g >
</g>
<g >
</g>
<g >
</g>
<g >
</g>
<g >
</g>
<g >
</g>
<g >
</g>
<g >
</g>
</g> 
</svg>
